<svg width="1236" height="199" viewBox="0 0 1236 199" fill="none" xmlns="http://www.w3.org/2000/svg">
<mask id="path-1-outside-1_122_373" maskUnits="userSpaceOnUse" x="-0.278076" y="-1" width="1237" height="200" fill="black">
<rect fill="white" x="-0.278076" y="-1" width="1237" height="200"/>
<path d="M172.665 132.503C170.375 143.396 165.707 153.849 158.662 163.863C151.792 173.702 142.545 181.784 130.92 188.108C119.471 194.433 105.996 197.596 90.4958 197.596C73.0581 197.596 57.646 193.643 44.2594 185.737C30.8729 177.655 20.3926 166.235 12.8187 151.477C5.42084 136.544 1.72192 119.063 1.72192 99.0343C1.72192 79.1815 5.42084 61.8761 12.8187 47.1183C20.3926 32.3604 30.8729 21.0285 44.2594 13.1225C57.646 5.04084 73.0581 1 90.4958 1C104.411 1 116.741 3.63533 127.485 8.90598C138.406 14.001 147.301 20.5014 154.17 28.4074C161.216 36.3134 166.236 44.5708 169.23 53.1795L140.96 59.5043C137.085 49.4901 130.832 41.3206 122.201 34.9958C113.57 28.4953 103.002 25.245 90.4958 25.245C72.3536 25.245 57.9102 31.8334 47.1657 45.01C36.5974 58.011 31.3132 76.0191 31.3132 99.0343C31.3132 122.401 36.5974 140.673 47.1657 153.849C57.734 166.85 72.1774 173.351 90.4958 173.351C105.115 173.351 116.829 169.046 125.636 160.437C134.442 151.829 140.431 141.024 143.602 128.023L172.665 132.503ZM211.092 75.3163H212.149C215.848 68.2888 221.308 62.491 228.53 57.9231C235.752 53.3552 244.118 51.0713 253.63 51.0713C258.033 51.0713 262.173 51.5105 266.048 52.3889V78.2152C261.116 77.5124 256.536 77.161 252.309 77.161C240.155 77.161 230.468 80.587 223.246 87.4388C216.024 94.115 212.413 104.832 212.413 119.59V193.379H185.464V54.2337H211.092V75.3163ZM392.917 152.795C389.042 164.918 381.996 175.283 371.78 183.892C361.564 192.325 347.121 196.542 328.45 196.542C315.592 196.542 304.143 193.555 294.103 187.581C284.24 181.432 276.577 172.911 271.117 162.019C265.657 150.95 262.927 138.301 262.927 124.07C262.927 109.663 265.569 96.926 270.853 85.8576C276.313 74.7892 283.887 66.2683 293.575 60.2949C303.439 54.1458 314.976 51.0713 328.186 51.0713C341.044 51.0713 352.405 53.9701 362.269 59.7679C372.309 65.3899 380.059 73.5594 385.519 84.2764C391.156 94.8178 393.974 107.38 393.974 121.962C393.974 125.651 393.886 128.462 393.71 130.395H290.14C290.492 143.396 294.103 154.025 300.973 162.282C308.018 170.54 317.177 174.668 328.45 174.668C339.195 174.668 347.473 172.209 353.286 167.289C359.098 162.194 363.238 156.309 365.704 149.633L392.917 152.795ZM328.186 72.9445C317.266 72.9445 308.547 76.5461 302.03 83.7494C295.689 90.7769 291.902 99.4735 290.669 109.839H366.496C365.263 99.2978 361.388 90.5134 354.871 83.4858C348.354 76.4583 339.459 72.9445 328.186 72.9445ZM495.525 193.379C494.292 192.149 493.235 189.865 492.354 186.527C491.65 183.189 491.297 179.324 491.297 174.932C487.07 182.135 480.465 187.581 471.482 191.271C462.675 194.785 453.604 196.542 444.268 196.542C435.99 196.542 428.328 194.872 421.282 191.534C414.237 188.021 408.6 183.189 404.373 177.04C400.322 170.715 398.296 163.336 398.296 154.903C398.296 140.673 403.228 130.219 413.092 123.543C422.956 116.691 437.839 112.211 457.743 110.103C470.601 108.873 479.32 107.028 483.9 104.568C488.655 102.109 491.033 98.5951 491.033 94.0272C491.033 80.1478 481.258 73.208 461.706 73.208C454.132 73.208 447.263 75.2285 441.098 79.2693C434.933 83.1345 430.618 88.9322 428.152 96.6625L403.58 90.8648C406.575 78.5666 413.444 68.9037 424.189 61.8761C434.933 54.6729 447.791 51.0713 462.763 51.0713C481.786 51.0713 495.701 55.0243 504.508 62.9303C513.491 70.6606 517.982 80.8505 517.982 93.5001V163.336C517.982 172.121 518.159 178.621 518.511 182.838C519.039 186.879 520.096 190.392 521.681 193.379H495.525ZM491.033 121.698C489.096 123.806 484.956 125.563 478.615 126.969C472.451 128.199 464.524 129.428 454.837 130.658C446.558 131.712 439.601 134.26 433.964 138.301C428.504 142.166 425.774 147.7 425.774 154.903C425.774 161.579 427.888 166.674 432.115 170.188C436.342 173.526 442.155 175.195 449.553 175.195C456.246 175.195 462.763 173.966 469.104 171.506C475.445 168.871 480.641 164.83 484.692 159.383C488.92 153.761 491.033 146.822 491.033 138.564V121.698ZM602.564 170.188V193.379C598.689 193.73 592.084 193.906 582.749 193.906C569.714 193.906 560.379 191.798 554.742 187.581C549.282 183.365 546.552 175.283 546.552 163.336V74.5257H523.566V54.2337H546.552V14.9672H573.501V54.2337H604.149V74.5257H573.501V156.221C573.501 162.37 574.646 166.323 576.936 168.08C579.226 169.837 583.365 170.715 589.354 170.715L602.564 170.188ZM732.053 152.795C728.178 164.918 721.132 175.283 710.916 183.892C700.7 192.325 686.257 196.542 667.586 196.542C654.728 196.542 643.279 193.555 633.239 187.581C623.375 181.432 615.713 172.911 610.253 162.019C604.793 150.95 602.063 138.301 602.063 124.07C602.063 109.663 604.705 96.926 609.989 85.8576C615.449 74.7892 623.023 66.2683 632.711 60.2949C642.574 54.1458 654.112 51.0713 667.322 51.0713C680.18 51.0713 691.541 53.9701 701.405 59.7679C711.445 65.3899 719.195 73.5594 724.655 84.2764C730.292 94.8178 733.11 107.38 733.11 121.962C733.11 125.651 733.022 128.462 732.846 130.395H629.276C629.628 143.396 633.239 154.025 640.109 162.282C647.154 170.54 656.313 174.668 667.586 174.668C678.331 174.668 686.609 172.209 692.422 167.289C698.234 162.194 702.374 156.309 704.84 149.633L732.053 152.795ZM667.322 72.9445C656.401 72.9445 647.683 76.5461 641.165 83.7494C634.824 90.7769 631.037 99.4735 629.804 109.839H705.632C704.399 99.2978 700.524 90.5134 694.007 83.4858C687.49 76.4583 678.595 72.9445 667.322 72.9445ZM853.419 47.1183H852.363L816.959 193.379H783.404L735.318 5.21652H765.174L799.785 155.167H800.842L836.51 5.21652H868.743L904.412 155.167H905.468L940.344 5.21652H970.464L921.849 193.379H889.352L853.419 47.1183ZM1088.27 152.795C1084.39 164.918 1077.35 175.283 1067.13 183.892C1056.92 192.325 1042.47 196.542 1023.8 196.542C1010.94 196.542 999.496 193.555 989.456 187.581C979.592 181.432 971.93 172.911 966.47 162.019C961.009 150.95 958.279 138.301 958.279 124.07C958.279 109.663 960.921 96.926 966.205 85.8576C971.666 74.7892 979.24 66.2683 988.927 60.2949C998.791 54.1458 1010.33 51.0713 1023.54 51.0713C1036.4 51.0713 1047.76 53.9701 1057.62 59.7679C1067.66 65.3899 1075.41 73.5594 1080.87 84.2764C1086.51 94.8178 1089.33 107.38 1089.33 121.962C1089.33 125.651 1089.24 128.462 1089.06 130.395H985.492C985.845 143.396 989.456 154.025 996.325 162.282C1003.37 170.54 1012.53 174.668 1023.8 174.668C1034.55 174.668 1042.83 172.209 1048.64 167.289C1054.45 162.194 1058.59 156.309 1061.06 149.633L1088.27 152.795ZM1023.54 72.9445C1012.62 72.9445 1003.9 76.5461 997.382 83.7494C991.041 90.7769 987.254 99.4735 986.021 109.839H1061.85C1060.62 99.2978 1056.74 90.5134 1050.22 83.4858C1043.71 76.4583 1034.81 72.9445 1023.54 72.9445ZM1171.59 51.0713C1183.92 51.0713 1194.84 54.1458 1204.35 60.2949C1214.04 66.2683 1221.53 74.7892 1226.81 85.8576C1232.27 96.7503 1235 109.4 1235 123.806C1235 138.213 1232.27 150.95 1226.81 162.019C1221.53 172.911 1214.04 181.432 1204.35 187.581C1194.84 193.555 1183.92 196.542 1171.59 196.542C1161.73 196.542 1152.92 194.697 1145.17 191.007C1137.6 187.142 1131.96 181.959 1128.26 175.459H1127.2V193.379H1101.57V2.58119H1128.52V70.5727H1129.58C1133.46 64.5993 1139 59.8557 1146.23 56.3419C1153.62 52.8282 1162.08 51.0713 1171.59 51.0713ZM1166.83 174.668C1179.34 174.668 1189.2 170.188 1196.43 161.228C1203.82 152.092 1207.52 139.618 1207.52 123.806C1207.52 107.994 1203.82 95.6084 1196.43 86.6482C1189.2 77.5124 1179.34 72.9445 1166.83 72.9445C1154.68 72.9445 1144.91 77.5124 1137.51 86.6482C1130.29 95.784 1126.67 108.17 1126.67 123.806C1126.67 139.443 1130.29 151.829 1137.51 160.965C1144.91 170.1 1154.68 174.668 1166.83 174.668Z"/>
</mask>
<path d="M172.665 132.503C170.375 143.396 165.707 153.849 158.662 163.863C151.792 173.702 142.545 181.784 130.92 188.108C119.471 194.433 105.996 197.596 90.4958 197.596C73.0581 197.596 57.646 193.643 44.2594 185.737C30.8729 177.655 20.3926 166.235 12.8187 151.477C5.42084 136.544 1.72192 119.063 1.72192 99.0343C1.72192 79.1815 5.42084 61.8761 12.8187 47.1183C20.3926 32.3604 30.8729 21.0285 44.2594 13.1225C57.646 5.04084 73.0581 1 90.4958 1C104.411 1 116.741 3.63533 127.485 8.90598C138.406 14.001 147.301 20.5014 154.17 28.4074C161.216 36.3134 166.236 44.5708 169.23 53.1795L140.96 59.5043C137.085 49.4901 130.832 41.3206 122.201 34.9958C113.57 28.4953 103.002 25.245 90.4958 25.245C72.3536 25.245 57.9102 31.8334 47.1657 45.01C36.5974 58.011 31.3132 76.0191 31.3132 99.0343C31.3132 122.401 36.5974 140.673 47.1657 153.849C57.734 166.85 72.1774 173.351 90.4958 173.351C105.115 173.351 116.829 169.046 125.636 160.437C134.442 151.829 140.431 141.024 143.602 128.023L172.665 132.503ZM211.092 75.3163H212.149C215.848 68.2888 221.308 62.491 228.53 57.9231C235.752 53.3552 244.118 51.0713 253.63 51.0713C258.033 51.0713 262.173 51.5105 266.048 52.3889V78.2152C261.116 77.5124 256.536 77.161 252.309 77.161C240.155 77.161 230.468 80.587 223.246 87.4388C216.024 94.115 212.413 104.832 212.413 119.59V193.379H185.464V54.2337H211.092V75.3163ZM392.917 152.795C389.042 164.918 381.996 175.283 371.78 183.892C361.564 192.325 347.121 196.542 328.45 196.542C315.592 196.542 304.143 193.555 294.103 187.581C284.24 181.432 276.577 172.911 271.117 162.019C265.657 150.95 262.927 138.301 262.927 124.07C262.927 109.663 265.569 96.926 270.853 85.8576C276.313 74.7892 283.887 66.2683 293.575 60.2949C303.439 54.1458 314.976 51.0713 328.186 51.0713C341.044 51.0713 352.405 53.9701 362.269 59.7679C372.309 65.3899 380.059 73.5594 385.519 84.2764C391.156 94.8178 393.974 107.38 393.974 121.962C393.974 125.651 393.886 128.462 393.71 130.395H290.14C290.492 143.396 294.103 154.025 300.973 162.282C308.018 170.54 317.177 174.668 328.45 174.668C339.195 174.668 347.473 172.209 353.286 167.289C359.098 162.194 363.238 156.309 365.704 149.633L392.917 152.795ZM328.186 72.9445C317.266 72.9445 308.547 76.5461 302.03 83.7494C295.689 90.7769 291.902 99.4735 290.669 109.839H366.496C365.263 99.2978 361.388 90.5134 354.871 83.4858C348.354 76.4583 339.459 72.9445 328.186 72.9445ZM495.525 193.379C494.292 192.149 493.235 189.865 492.354 186.527C491.65 183.189 491.297 179.324 491.297 174.932C487.07 182.135 480.465 187.581 471.482 191.271C462.675 194.785 453.604 196.542 444.268 196.542C435.99 196.542 428.328 194.872 421.282 191.534C414.237 188.021 408.6 183.189 404.373 177.04C400.322 170.715 398.296 163.336 398.296 154.903C398.296 140.673 403.228 130.219 413.092 123.543C422.956 116.691 437.839 112.211 457.743 110.103C470.601 108.873 479.32 107.028 483.9 104.568C488.655 102.109 491.033 98.5951 491.033 94.0272C491.033 80.1478 481.258 73.208 461.706 73.208C454.132 73.208 447.263 75.2285 441.098 79.2693C434.933 83.1345 430.618 88.9322 428.152 96.6625L403.58 90.8648C406.575 78.5666 413.444 68.9037 424.189 61.8761C434.933 54.6729 447.791 51.0713 462.763 51.0713C481.786 51.0713 495.701 55.0243 504.508 62.9303C513.491 70.6606 517.982 80.8505 517.982 93.5001V163.336C517.982 172.121 518.159 178.621 518.511 182.838C519.039 186.879 520.096 190.392 521.681 193.379H495.525ZM491.033 121.698C489.096 123.806 484.956 125.563 478.615 126.969C472.451 128.199 464.524 129.428 454.837 130.658C446.558 131.712 439.601 134.26 433.964 138.301C428.504 142.166 425.774 147.7 425.774 154.903C425.774 161.579 427.888 166.674 432.115 170.188C436.342 173.526 442.155 175.195 449.553 175.195C456.246 175.195 462.763 173.966 469.104 171.506C475.445 168.871 480.641 164.83 484.692 159.383C488.92 153.761 491.033 146.822 491.033 138.564V121.698ZM602.564 170.188V193.379C598.689 193.73 592.084 193.906 582.749 193.906C569.714 193.906 560.379 191.798 554.742 187.581C549.282 183.365 546.552 175.283 546.552 163.336V74.5257H523.566V54.2337H546.552V14.9672H573.501V54.2337H604.149V74.5257H573.501V156.221C573.501 162.37 574.646 166.323 576.936 168.08C579.226 169.837 583.365 170.715 589.354 170.715L602.564 170.188ZM732.053 152.795C728.178 164.918 721.132 175.283 710.916 183.892C700.7 192.325 686.257 196.542 667.586 196.542C654.728 196.542 643.279 193.555 633.239 187.581C623.375 181.432 615.713 172.911 610.253 162.019C604.793 150.95 602.063 138.301 602.063 124.07C602.063 109.663 604.705 96.926 609.989 85.8576C615.449 74.7892 623.023 66.2683 632.711 60.2949C642.574 54.1458 654.112 51.0713 667.322 51.0713C680.18 51.0713 691.541 53.9701 701.405 59.7679C711.445 65.3899 719.195 73.5594 724.655 84.2764C730.292 94.8178 733.11 107.38 733.11 121.962C733.11 125.651 733.022 128.462 732.846 130.395H629.276C629.628 143.396 633.239 154.025 640.109 162.282C647.154 170.54 656.313 174.668 667.586 174.668C678.331 174.668 686.609 172.209 692.422 167.289C698.234 162.194 702.374 156.309 704.84 149.633L732.053 152.795ZM667.322 72.9445C656.401 72.9445 647.683 76.5461 641.165 83.7494C634.824 90.7769 631.037 99.4735 629.804 109.839H705.632C704.399 99.2978 700.524 90.5134 694.007 83.4858C687.49 76.4583 678.595 72.9445 667.322 72.9445ZM853.419 47.1183H852.363L816.959 193.379H783.404L735.318 5.21652H765.174L799.785 155.167H800.842L836.51 5.21652H868.743L904.412 155.167H905.468L940.344 5.21652H970.464L921.849 193.379H889.352L853.419 47.1183ZM1088.27 152.795C1084.39 164.918 1077.35 175.283 1067.13 183.892C1056.92 192.325 1042.47 196.542 1023.8 196.542C1010.94 196.542 999.496 193.555 989.456 187.581C979.592 181.432 971.93 172.911 966.47 162.019C961.009 150.95 958.279 138.301 958.279 124.07C958.279 109.663 960.921 96.926 966.205 85.8576C971.666 74.7892 979.24 66.2683 988.927 60.2949C998.791 54.1458 1010.33 51.0713 1023.54 51.0713C1036.4 51.0713 1047.76 53.9701 1057.62 59.7679C1067.66 65.3899 1075.41 73.5594 1080.87 84.2764C1086.51 94.8178 1089.33 107.38 1089.33 121.962C1089.33 125.651 1089.24 128.462 1089.06 130.395H985.492C985.845 143.396 989.456 154.025 996.325 162.282C1003.37 170.54 1012.53 174.668 1023.8 174.668C1034.55 174.668 1042.83 172.209 1048.64 167.289C1054.45 162.194 1058.59 156.309 1061.06 149.633L1088.27 152.795ZM1023.54 72.9445C1012.62 72.9445 1003.9 76.5461 997.382 83.7494C991.041 90.7769 987.254 99.4735 986.021 109.839H1061.85C1060.62 99.2978 1056.74 90.5134 1050.22 83.4858C1043.71 76.4583 1034.81 72.9445 1023.54 72.9445ZM1171.59 51.0713C1183.92 51.0713 1194.84 54.1458 1204.35 60.2949C1214.04 66.2683 1221.53 74.7892 1226.81 85.8576C1232.27 96.7503 1235 109.4 1235 123.806C1235 138.213 1232.27 150.95 1226.81 162.019C1221.53 172.911 1214.04 181.432 1204.35 187.581C1194.84 193.555 1183.92 196.542 1171.59 196.542C1161.73 196.542 1152.92 194.697 1145.17 191.007C1137.6 187.142 1131.96 181.959 1128.26 175.459H1127.2V193.379H1101.57V2.58119H1128.52V70.5727H1129.58C1133.46 64.5993 1139 59.8557 1146.23 56.3419C1153.62 52.8282 1162.08 51.0713 1171.59 51.0713ZM1166.83 174.668C1179.34 174.668 1189.2 170.188 1196.43 161.228C1203.82 152.092 1207.52 139.618 1207.52 123.806C1207.52 107.994 1203.82 95.6084 1196.43 86.6482C1189.2 77.5124 1179.34 72.9445 1166.83 72.9445C1154.68 72.9445 1144.91 77.5124 1137.51 86.6482C1130.29 95.784 1126.67 108.17 1126.67 123.806C1126.67 139.443 1130.29 151.829 1137.51 160.965C1144.91 170.1 1154.68 174.668 1166.83 174.668Z" stroke="#303030" stroke-width="2.00205" mask="url(#path-1-outside-1_122_373)"/>
</svg>
