<svg width="151" height="135" viewBox="0 0 151 135" fill="none" xmlns="http://www.w3.org/2000/svg">
<path fill-rule="evenodd" clip-rule="evenodd" d="M94.446 0.957671C106.895 2.28753 118.723 7.08015 128.586 14.7917L116.944 29.6831C109.864 24.1478 101.374 20.7077 92.4382 19.7531C83.5022 18.7986 74.4774 20.3678 66.3881 24.2827C64.0226 25.4275 61.7647 26.7595 59.634 28.2613C54.6846 24.9904 49.2848 21.7057 44.6334 19.3803C43.6683 18.8978 42.7869 18.5315 41.9821 18.2665C46.7824 13.8501 52.2254 10.1372 58.1537 7.2681C69.4236 1.81398 81.9965 -0.372184 94.446 0.957671ZM34.1164 26.884C32.9033 28.4711 31.7586 30.1159 30.6869 31.8143C24.0054 42.4027 20.4254 54.6519 20.3532 67.1719C20.2809 79.692 23.7193 91.9816 30.2782 102.646C36.8371 113.311 46.2539 121.924 57.4601 127.508C68.6662 133.092 81.2131 135.423 93.6771 134.237C106.141 133.051 118.023 128.395 127.975 120.797L116.505 105.773C109.362 111.226 100.833 114.568 91.8863 115.419C82.9398 116.271 73.9338 114.597 65.8902 110.589C57.8465 106.582 51.0872 100.399 46.3793 92.7442C41.6714 85.0891 39.2034 76.2677 39.2552 67.281C39.3071 58.2942 41.8768 49.5019 46.6727 41.9017C47.8329 40.063 49.1123 38.3119 50.4997 36.6581C43.1509 32.4268 35.9102 28.1847 34.1164 26.884Z" fill="#FF8C00"/>
<path d="M93.7946 84.2015L97.1219 87.5919L103.903 80.9373L100.575 77.5469L93.7946 84.2015ZM30.2465 74.8503C20.9798 64.4399 14.7056 53.4112 11.9197 44.4475C10.5213 39.9483 10.0852 36.2374 10.3847 33.5073C10.679 30.8238 11.6061 29.5242 12.5724 28.8756C13.614 28.1764 15.7276 27.5412 19.76 28.3457C23.7729 29.1462 29.1567 31.2836 36.0634 35.3531C49.8597 43.4821 68.8631 58.7973 93.7946 84.2015L100.575 77.5469C75.3908 51.8849 55.7154 35.9052 40.8864 27.1677C33.4804 22.804 27.0648 20.1151 21.6188 19.0286C16.1923 17.9461 11.1872 18.363 7.27757 20.9872C3.29262 23.6619 1.43584 27.9569 0.940654 32.4714C0.450581 36.9393 1.21929 42.0297 2.84714 47.2673C6.11361 57.7771 13.1774 69.9637 23.15 81.1672L30.2465 74.8503Z" fill="white"/>
<path d="M22.2403 54.226H32.6436V80.9815L22.2387 82.4679C21.911 82.956 20.9113 78.0795 20.753 73.5494C20.6681 71.123 20.7524 70.3207 20.7523 67.6038C20.752 60.1717 19.2674 61.6581 22.2403 54.226Z" fill="#FF8C00"/>
<path d="M140.131 111.181L142.886 115.05L150.625 109.54L147.87 105.67L140.131 111.181ZM18.1136 24.9874C18.2683 20.6032 19.3658 18.1043 20.6054 16.7158C21.7711 15.4102 23.5862 14.4992 26.5694 14.3939C32.9415 14.1689 42.8681 17.7261 55.4134 25.6274C80.1458 41.2043 112.022 71.7082 140.131 111.181L147.87 105.67C119.251 65.4804 86.5232 33.9929 60.4766 17.5883C47.6324 9.49878 35.6258 4.5676 26.2341 4.89916C21.3353 5.07211 16.8109 6.70061 13.5183 10.3885C10.2997 13.9935 8.82038 18.9421 8.61884 24.6522L18.1136 24.9874Z" fill="white"/>
</svg>
