<svg width="342" height="49" viewBox="0 0 342 49" fill="none" xmlns="http://www.w3.org/2000/svg">
<path d="M105.117 31.4316C104.607 33.8695 103.566 36.2091 101.995 38.4504C100.463 40.6524 98.4011 42.4611 95.8089 43.8767C93.256 45.2922 90.2514 46 86.7951 46C82.9068 46 79.4701 45.1153 76.4851 43.3458C73.5002 41.5371 71.1632 38.9812 69.4744 35.6783C67.8248 32.336 67 28.4236 67 23.941C67 19.4978 67.8248 15.6247 69.4744 12.3217C71.1632 9.01877 73.5002 6.48257 76.4851 4.71314C79.4701 2.90438 82.9068 2 86.7951 2C89.8979 2 92.6472 2.58981 95.043 3.76944C97.4781 4.90974 99.4616 6.36461 100.993 8.13405C102.564 9.90348 103.684 11.7516 104.351 13.6783L98.0476 15.0938C97.1836 12.8525 95.7893 11.0241 93.8647 9.60858C91.9402 8.15371 89.5837 7.42627 86.7951 7.42627C82.7497 7.42627 79.529 8.9008 77.1332 11.8499C74.7766 14.7596 73.5984 18.79 73.5984 23.941C73.5984 29.1707 74.7766 33.2601 77.1332 36.2091C79.4897 39.1189 82.7104 40.5737 86.7951 40.5737C90.055 40.5737 92.6668 39.6104 94.6306 37.6836C96.5944 35.7569 97.9298 33.3387 98.6368 30.429L105.117 31.4316Z" fill="white"/>
<path d="M113.686 18.6327H113.922C114.747 17.0599 115.964 15.7623 117.574 14.7399C119.185 13.7176 121.05 13.2064 123.171 13.2064C124.153 13.2064 125.076 13.3047 125.94 13.5013V19.2815C124.84 19.1242 123.819 19.0456 122.877 19.0456C120.167 19.0456 118.006 19.8123 116.396 21.3458C114.786 22.84 113.981 25.2386 113.981 28.5416V45.0563H107.971V13.9142H113.686V18.6327Z" fill="white"/>
<path d="M154.23 35.9732C153.366 38.6863 151.795 41.0063 149.517 42.933C147.239 44.8204 144.018 45.7641 139.855 45.7641C136.988 45.7641 134.435 45.0956 132.196 43.7587C129.997 42.3825 128.288 40.4754 127.071 38.0375C125.853 35.5603 125.244 32.7292 125.244 29.5442C125.244 26.3199 125.833 23.4692 127.012 20.992C128.229 18.5147 129.918 16.6077 132.078 15.2708C134.278 13.8945 136.85 13.2064 139.796 13.2064C142.663 13.2064 145.196 13.8552 147.396 15.1528C149.635 16.4111 151.363 18.2395 152.58 20.6381C153.837 22.9973 154.466 25.8088 154.466 29.0724C154.466 29.8981 154.446 30.5273 154.407 30.9598H131.312C131.391 33.8695 132.196 36.2484 133.728 38.0965C135.299 39.9446 137.341 40.8686 139.855 40.8686C142.251 40.8686 144.097 40.3181 145.393 39.2172C146.689 38.0769 147.612 36.7596 148.162 35.2654L154.23 35.9732ZM139.796 18.1019C137.361 18.1019 135.417 18.908 133.963 20.5201C132.55 22.0929 131.705 24.0393 131.43 26.3593H148.338C148.064 24 147.199 22.034 145.746 20.4611C144.293 18.8883 142.31 18.1019 139.796 18.1019Z" fill="white"/>
<path d="M177.11 45.0563C176.835 44.7811 176.599 44.2699 176.403 43.5228C176.246 42.7757 176.167 41.9106 176.167 40.9276C175.224 42.5398 173.752 43.7587 171.748 44.5845C169.785 45.3709 167.762 45.7641 165.68 45.7641C163.834 45.7641 162.126 45.3905 160.555 44.6434C158.984 43.857 157.727 42.7757 156.784 41.3995C155.881 39.9839 155.429 38.3324 155.429 36.445C155.429 33.2601 156.529 30.9205 158.728 29.4263C160.928 27.8928 164.247 26.8901 168.685 26.4182C171.552 26.143 173.496 25.7301 174.517 25.1796C175.578 24.6291 176.108 23.8427 176.108 22.8204C176.108 19.714 173.928 18.1609 169.569 18.1609C167.88 18.1609 166.348 18.613 164.973 19.5174C163.599 20.3825 162.636 21.6801 162.087 23.4102L156.608 22.1126C157.275 19.3601 158.807 17.1975 161.203 15.6247C163.599 14.0125 166.466 13.2064 169.804 13.2064C174.046 13.2064 177.149 14.0912 179.113 15.8606C181.116 17.5907 182.117 19.8713 182.117 22.7024V38.3324C182.117 40.2985 182.157 41.7534 182.235 42.6971C182.353 43.6014 182.589 44.3878 182.942 45.0563H177.11ZM176.108 29.0134C175.676 29.4853 174.753 29.8785 173.339 30.193C171.964 30.4683 170.197 30.7435 168.037 31.0188C166.191 31.2547 164.64 31.8248 163.383 32.7292C162.165 33.5943 161.556 34.8329 161.556 36.445C161.556 37.9392 162.028 39.0795 162.97 39.866C163.913 40.613 165.209 40.9866 166.859 40.9866C168.351 40.9866 169.804 40.7114 171.218 40.1609C172.632 39.571 173.791 38.6667 174.694 37.4477C175.637 36.1895 176.108 34.6363 176.108 32.7882V29.0134Z" fill="white"/>
<path d="M200.978 39.866V45.0563C200.114 45.1349 198.641 45.1743 196.559 45.1743C193.653 45.1743 191.571 44.7024 190.314 43.7587C189.097 42.815 188.488 41.0063 188.488 38.3324V18.4558H183.362V13.9142H188.488V5.126H194.497V13.9142H201.331V18.4558H194.497V36.7399C194.497 38.1162 194.752 39.0009 195.263 39.3941C195.774 39.7873 196.697 39.9839 198.032 39.9839L200.978 39.866Z" fill="white"/>
<path d="M229.851 35.9732C228.987 38.6863 227.416 41.0063 225.138 42.933C222.86 44.8204 219.64 45.7641 215.476 45.7641C212.609 45.7641 210.056 45.0956 207.818 43.7587C205.618 42.3825 203.91 40.4754 202.692 38.0375C201.475 35.5603 200.866 32.7292 200.866 29.5442C200.866 26.3199 201.455 23.4692 202.633 20.992C203.851 18.5147 205.54 16.6077 207.7 15.2708C209.899 13.8945 212.472 13.2064 215.417 13.2064C218.285 13.2064 220.818 13.8552 223.017 15.1528C225.256 16.4111 226.984 18.2395 228.202 20.6381C229.459 22.9973 230.087 25.8088 230.087 29.0724C230.087 29.8981 230.067 30.5273 230.028 30.9598H206.934C207.012 33.8695 207.818 36.2484 209.349 38.0965C210.92 39.9446 212.963 40.8686 215.476 40.8686C217.872 40.8686 219.718 40.3181 221.014 39.2172C222.31 38.0769 223.233 36.7596 223.783 35.2654L229.851 35.9732ZM215.417 18.1019C212.982 18.1019 211.038 18.908 209.585 20.5201C208.171 22.0929 207.327 24.0393 207.052 26.3593H223.96C223.685 24 222.821 22.034 221.368 20.4611C219.915 18.8883 217.931 18.1019 215.417 18.1019Z" fill="white"/>
<path d="M256.914 12.3217H256.678L248.784 45.0563H241.302L230.58 2.9437H237.237L244.955 36.504H245.19L253.144 2.9437H260.331L268.284 36.504H268.52L276.297 2.9437H283.013L272.173 45.0563H264.926L256.914 12.3217Z" fill="white"/>
<path d="M309.282 35.9732C308.418 38.6863 306.847 41.0063 304.569 42.933C302.291 44.8204 299.07 45.7641 294.907 45.7641C292.039 45.7641 289.487 45.0956 287.248 43.7587C285.048 42.3825 283.34 40.4754 282.122 38.0375C280.905 35.5603 280.296 32.7292 280.296 29.5442C280.296 26.3199 280.885 23.4692 282.063 20.992C283.281 18.5147 284.97 16.6077 287.13 15.2708C289.329 13.8945 291.902 13.2064 294.848 13.2064C297.715 13.2064 300.248 13.8552 302.448 15.1528C304.686 16.4111 306.414 18.2395 307.632 20.6381C308.889 22.9973 309.517 25.8088 309.517 29.0724C309.517 29.8981 309.498 30.5273 309.458 30.9598H286.364C286.443 33.8695 287.248 36.2484 288.78 38.0965C290.351 39.9446 292.393 40.8686 294.907 40.8686C297.302 40.8686 299.148 40.3181 300.445 39.2172C301.741 38.0769 302.664 36.7596 303.213 35.2654L309.282 35.9732ZM294.848 18.1019C292.413 18.1019 290.468 18.908 289.015 20.5201C287.601 22.0929 286.757 24.0393 286.482 26.3593H303.39C303.115 24 302.251 22.034 300.798 20.4611C299.345 18.8883 297.361 18.1019 294.848 18.1019Z" fill="white"/>
<path d="M327.861 13.2064C330.61 13.2064 333.045 13.8945 335.166 15.2708C337.326 16.6077 338.995 18.5147 340.174 20.992C341.391 23.4298 342 26.2609 342 29.4853C342 32.7096 341.391 35.5603 340.174 38.0375C338.995 40.4754 337.326 42.3825 335.166 43.7587C333.045 45.0956 330.61 45.7641 327.861 45.7641C325.661 45.7641 323.697 45.3512 321.969 44.5255C320.28 43.6604 319.024 42.5004 318.199 41.0456H317.963V45.0563H312.248V2.35389H318.258V17.571H318.493C319.357 16.2341 320.595 15.1725 322.205 14.3861C323.855 13.5996 325.74 13.2064 327.861 13.2064ZM326.8 40.8686C329.589 40.8686 331.788 39.866 333.399 37.8606C335.048 35.8159 335.873 33.0241 335.873 29.4853C335.873 25.9464 335.048 23.1743 333.399 21.1689C331.788 19.1242 329.589 18.1019 326.8 18.1019C324.09 18.1019 321.91 19.1242 320.261 21.1689C318.65 23.2136 317.845 25.9857 317.845 29.4853C317.845 32.9848 318.65 35.7569 320.261 37.8016C321.91 39.8463 324.09 40.8686 326.8 40.8686Z" fill="white"/>
<path d="M43.2735 7.73506C39.9557 5.14104 35.9771 3.52889 31.7894 3.08156C27.6017 2.63422 23.3724 3.3696 19.5814 5.20425C15.7905 7.03891 12.5897 9.89938 10.3421 13.4611C8.09462 17.0228 6.89039 21.1432 6.8661 25.3547C6.8418 29.5662 7.99841 33.7002 10.2047 37.2876C12.411 40.875 15.5786 43.7722 19.3481 45.6505C23.1176 47.5288 27.3381 48.3129 31.5308 47.9139C35.7234 47.5149 39.7202 45.9488 43.0678 43.3932L39.2096 38.3392C36.8067 40.1736 33.9378 41.2977 30.9284 41.5841C27.919 41.8705 24.8895 41.3077 22.1838 39.9595C19.4781 38.6113 17.2044 36.5317 15.6208 33.9567C14.0371 31.3817 13.2069 28.4143 13.2244 25.3914C13.2418 22.3684 14.1062 19.4109 15.7194 16.8543C17.3327 14.2977 19.6302 12.2445 22.3513 10.9276C25.0724 9.61072 28.1081 9.08288 31.114 9.40397C34.12 9.72506 36.9757 10.8822 39.3572 12.7442L43.2735 7.73506Z" fill="#FF8C00"/>
<path d="M48.1566 36.1584L49.0835 37.4601L51.6867 35.6063L50.7599 34.3047L48.1566 36.1584ZM7.11254 7.16467C7.16459 5.68993 7.53375 4.84935 7.95074 4.3823C8.34285 3.94311 8.95343 3.63667 9.95689 3.60125C12.1004 3.52557 15.4395 4.72212 19.6594 7.37995C27.9789 12.6197 38.7016 22.8806 48.1566 36.1584L50.7599 34.3047C41.1331 20.7857 30.1241 10.194 21.3626 4.67577C17.0421 1.95463 13.0033 0.295876 9.84414 0.407409C8.19628 0.465586 6.67433 1.01338 5.56679 2.2539C4.48412 3.46656 3.9865 5.13116 3.91871 7.05194L7.11254 7.16467Z" fill="white"/>
<path d="M16.0327 5.27851C20.1247 7.32428 25.9389 11.5771 26.2601 12.1821C26.5814 12.787 23.9588 14.4831 23.9588 14.4831C23.9588 14.4831 14.2729 7.88073 14.2428 7.60394C14.2127 7.32715 11.9407 3.23274 16.0327 5.27851Z" fill="#1E1E1E"/>
<path d="M32.5702 27.0832L33.6894 28.2236L35.9703 25.9852L34.8511 24.8447L32.5702 27.0832ZM9.97697 24.4221C6.87063 20.9324 4.84483 17.2108 4.01825 14.1741C3.60393 12.6519 3.5142 11.3881 3.66917 10.4473C3.82055 9.52832 4.18145 9.01258 4.61898 8.7289C5.07901 8.43064 5.90214 8.20839 7.32032 8.45496C8.73847 8.70153 10.6114 9.39713 12.9841 10.741C17.727 13.4272 24.1882 18.5422 32.5702 27.0832L34.8511 24.8447C26.3751 16.208 19.6734 10.8567 14.5591 7.96017C12.0033 6.51265 9.77402 5.6378 7.86775 5.30637C5.96151 4.97495 4.23798 5.16717 2.88039 6.04737C1.5003 6.94217 0.772643 8.36889 0.515837 9.92791C0.262618 11.4651 0.445066 13.2149 0.934617 15.0134C1.91577 18.618 4.22445 22.7662 7.58986 26.5469L9.97697 24.4221Z" fill="white"/>
<path d="M7.36965 20.4092C7.81527 19.5147 10.4361 19.6075 10.6936 19.6075C10.9511 19.6075 9.89742 23.9924 10.1822 27.2779C10.1822 27.2779 7.32173 28.1733 7.114 27.2779C6.90627 26.3826 6.75117 25.094 6.96805 25.3847C6.94301 23.5458 7.07097 21.0088 7.36965 20.4092Z" fill="#FF8C00"/>
</svg>
