<svg width="343" height="46" viewBox="0 0 343 46" fill="none" xmlns="http://www.w3.org/2000/svg">
<path d="M105.233 29.4316C104.722 31.8695 103.682 34.2091 102.111 36.4504C100.579 38.6524 98.5168 40.4611 95.9246 41.8767C93.3717 43.2922 90.3671 44 86.9108 44C83.0225 44 79.5858 43.1153 76.6009 41.3458C73.6159 39.5371 71.279 36.9812 69.5901 33.6783C67.9405 30.336 67.1157 26.4236 67.1157 21.941C67.1157 17.4978 67.9405 13.6247 69.5901 10.3217C71.279 7.01877 73.6159 4.48257 76.6009 2.71314C79.5858 0.904379 83.0225 0 86.9108 0C90.0136 0 92.7629 0.589812 95.1587 1.76944C97.5939 2.90974 99.5773 4.36461 101.109 6.13405C102.68 7.90348 103.799 9.75156 104.467 11.6783L98.1634 13.0938C97.2993 10.8525 95.905 9.02413 93.9805 7.60858C92.0559 6.15371 89.6994 5.42627 86.9108 5.42627C82.8654 5.42627 79.6447 6.9008 77.2489 9.84987C74.8924 12.7596 73.7141 16.79 73.7141 21.941C73.7141 27.1707 74.8924 31.2601 77.2489 34.2091C79.6055 37.1189 82.8261 38.5737 86.9108 38.5737C90.1707 38.5737 92.7826 37.6104 94.7463 35.6836C96.7101 33.7569 98.0455 31.3387 98.7525 28.429L105.233 29.4316Z" fill="#111111"/>
<path d="M113.802 16.6327H114.037C114.862 15.0599 116.08 13.7623 117.69 12.7399C119.3 11.7176 121.166 11.2064 123.287 11.2064C124.269 11.2064 125.192 11.3047 126.056 11.5013V17.2815C124.956 17.1242 123.935 17.0456 122.992 17.0456C120.282 17.0456 118.122 17.8123 116.512 19.3458C114.901 20.84 114.096 23.2386 114.096 26.5416V43.0563H108.087V11.9142H113.802V16.6327Z" fill="#111111"/>
<path d="M154.346 33.9732C153.482 36.6863 151.91 39.0063 149.632 40.933C147.354 42.8204 144.134 43.7641 139.971 43.7641C137.103 43.7641 134.551 43.0956 132.312 41.7587C130.112 40.3825 128.404 38.4754 127.186 36.0375C125.969 33.5603 125.36 30.7292 125.36 27.5442C125.36 24.3199 125.949 21.4692 127.127 18.992C128.345 16.5147 130.034 14.6077 132.194 13.2708C134.393 11.8945 136.966 11.2064 139.912 11.2064C142.779 11.2064 145.312 11.8552 147.512 13.1528C149.75 14.4111 151.478 16.2395 152.696 18.6381C153.953 20.9973 154.581 23.8088 154.581 27.0724C154.581 27.8981 154.562 28.5273 154.522 28.9598H131.428C131.507 31.8695 132.312 34.2484 133.844 36.0965C135.415 37.9446 137.457 38.8686 139.971 38.8686C142.366 38.8686 144.212 38.3181 145.509 37.2172C146.805 36.0769 147.728 34.7596 148.277 33.2654L154.346 33.9732ZM139.912 16.1019C137.477 16.1019 135.532 16.908 134.079 18.5201C132.665 20.0929 131.821 22.0393 131.546 24.3593H148.454C148.179 22 147.315 20.034 145.862 18.4611C144.409 16.8883 142.425 16.1019 139.912 16.1019Z" fill="#111111"/>
<path d="M177.225 43.0563C176.95 42.7811 176.715 42.2699 176.518 41.5228C176.361 40.7757 176.283 39.9106 176.283 38.9276C175.34 40.5398 173.867 41.7587 171.864 42.5845C169.9 43.3709 167.878 43.7641 165.796 43.7641C163.95 43.7641 162.242 43.3905 160.671 42.6434C159.1 41.857 157.843 40.7757 156.9 39.3995C155.997 37.9839 155.545 36.3324 155.545 34.445C155.545 31.2601 156.645 28.9205 158.844 27.4263C161.044 25.8928 164.362 24.8901 168.801 24.4182C171.668 24.143 173.612 23.7301 174.633 23.1796C175.694 22.6291 176.224 21.8427 176.224 20.8204C176.224 17.714 174.044 16.1609 169.684 16.1609C167.996 16.1609 166.464 16.613 165.089 17.5174C163.714 18.3825 162.752 19.6801 162.202 21.4102L156.723 20.1126C157.391 17.3601 158.923 15.1975 161.319 13.6247C163.714 12.0125 166.582 11.2064 169.92 11.2064C174.162 11.2064 177.265 12.0912 179.228 13.8606C181.232 15.5907 182.233 17.8713 182.233 20.7024V36.3324C182.233 38.2985 182.272 39.7534 182.351 40.6971C182.469 41.6014 182.704 42.3878 183.058 43.0563H177.225ZM176.224 27.0134C175.792 27.4853 174.869 27.8785 173.455 28.193C172.08 28.4683 170.313 28.7435 168.153 29.0188C166.307 29.2547 164.755 29.8248 163.498 30.7292C162.281 31.5943 161.672 32.8329 161.672 34.445C161.672 35.9392 162.143 37.0795 163.086 37.866C164.029 38.613 165.325 38.9866 166.974 38.9866C168.467 38.9866 169.92 38.7114 171.334 38.1609C172.748 37.571 173.907 36.6667 174.81 35.4477C175.753 34.1895 176.224 32.6363 176.224 30.7882V27.0134Z" fill="#111111"/>
<path d="M201.093 37.866V43.0563C200.229 43.1349 198.756 43.1743 196.675 43.1743C193.768 43.1743 191.687 42.7024 190.43 41.7587C189.212 40.815 188.604 39.0063 188.604 36.3324V16.4558H183.478V11.9142H188.604V3.126H194.613V11.9142H201.447V16.4558H194.613V34.7399C194.613 36.1162 194.868 37.0009 195.379 37.3941C195.889 37.7873 196.812 37.9839 198.148 37.9839L201.093 37.866Z" fill="#111111"/>
<path d="M229.967 33.9732C229.103 36.6863 227.532 39.0063 225.254 40.933C222.976 42.8204 219.755 43.7641 215.592 43.7641C212.725 43.7641 210.172 43.0956 207.933 41.7587C205.734 40.3825 204.025 38.4754 202.808 36.0375C201.59 33.5603 200.981 30.7292 200.981 27.5442C200.981 24.3199 201.571 21.4692 202.749 18.992C203.966 16.5147 205.655 14.6077 207.815 13.2708C210.015 11.8945 212.588 11.2064 215.533 11.2064C218.4 11.2064 220.934 11.8552 223.133 13.1528C225.372 14.4111 227.1 16.2395 228.318 18.6381C229.574 20.9973 230.203 23.8088 230.203 27.0724C230.203 27.8981 230.183 28.5273 230.144 28.9598H207.05C207.128 31.8695 207.933 34.2484 209.465 36.0965C211.036 37.9446 213.078 38.8686 215.592 38.8686C217.988 38.8686 219.834 38.3181 221.13 37.2172C222.426 36.0769 223.349 34.7596 223.899 33.2654L229.967 33.9732ZM215.533 16.1019C213.098 16.1019 211.154 16.908 209.701 18.5201C208.287 20.0929 207.442 22.0393 207.167 24.3593H224.076C223.801 22 222.937 20.034 221.484 18.4611C220.03 16.8883 218.047 16.1019 215.533 16.1019Z" fill="#111111"/>
<path d="M257.03 10.3217H256.794L248.9 43.0563H241.418L230.695 0.943698H237.353L245.07 34.504H245.306L253.259 0.943698H260.447L268.4 34.504H268.636L276.412 0.943698H283.129L272.288 43.0563H265.042L257.03 10.3217Z" fill="#111111"/>
<path d="M309.397 33.9732C308.533 36.6863 306.962 39.0063 304.684 40.933C302.406 42.8204 299.186 43.7641 295.022 43.7641C292.155 43.7641 289.602 43.0956 287.364 41.7587C285.164 40.3825 283.456 38.4754 282.238 36.0375C281.02 33.5603 280.412 30.7292 280.412 27.5442C280.412 24.3199 281.001 21.4692 282.179 18.992C283.397 16.5147 285.086 14.6077 287.246 13.2708C289.445 11.8945 292.018 11.2064 294.963 11.2064C297.831 11.2064 300.364 11.8552 302.563 13.1528C304.802 14.4111 306.53 16.2395 307.748 18.6381C309.005 20.9973 309.633 23.8088 309.633 27.0724C309.633 27.8981 309.613 28.5273 309.574 28.9598H286.48C286.558 31.8695 287.364 34.2484 288.895 36.0965C290.466 37.9446 292.509 38.8686 295.022 38.8686C297.418 38.8686 299.264 38.3181 300.56 37.2172C301.856 36.0769 302.779 34.7596 303.329 33.2654L309.397 33.9732ZM294.963 16.1019C292.528 16.1019 290.584 16.908 289.131 18.5201C287.717 20.0929 286.873 22.0393 286.598 24.3593H303.506C303.231 22 302.367 20.034 300.914 18.4611C299.461 16.8883 297.477 16.1019 294.963 16.1019Z" fill="#111111"/>
<path d="M327.976 11.2064C330.726 11.2064 333.161 11.8945 335.282 13.2708C337.442 14.6077 339.111 16.5147 340.289 18.992C341.507 21.4298 342.116 24.2609 342.116 27.4853C342.116 30.7096 341.507 33.5603 340.289 36.0375C339.111 38.4754 337.442 40.3825 335.282 41.7587C333.161 43.0956 330.726 43.7641 327.976 43.7641C325.777 43.7641 323.813 43.3512 322.085 42.5255C320.396 41.6604 319.139 40.5004 318.315 39.0456H318.079V43.0563H312.364V0.353886H318.373V15.571H318.609C319.473 14.2341 320.71 13.1725 322.321 12.3861C323.97 11.5996 325.855 11.2064 327.976 11.2064ZM326.916 38.8686C329.705 38.8686 331.904 37.866 333.514 35.8606C335.164 33.8159 335.989 31.0241 335.989 27.4853C335.989 23.9464 335.164 21.1743 333.514 19.1689C331.904 17.1242 329.705 16.1019 326.916 16.1019C324.206 16.1019 322.026 17.1242 320.377 19.1689C318.766 21.2136 317.961 23.9857 317.961 27.4853C317.961 30.9848 318.766 33.7569 320.377 35.8016C322.026 37.8463 324.206 38.8686 326.916 38.8686Z" fill="#111111"/>
<path fill-rule="evenodd" clip-rule="evenodd" d="M32.5279 0.130122C36.8029 0.586779 40.8643 2.23251 44.2513 4.88058L40.2534 9.99409C37.8223 8.09333 34.907 6.91204 31.8385 6.58426C28.77 6.25648 25.671 6.79532 22.8932 8.13966C22.0809 8.53279 21.3055 8.9902 20.5738 9.50594C18.8742 8.38271 17.0199 7.25474 15.4226 6.45619C15.0913 6.29055 14.7887 6.16481 14.5124 6.07381C16.1608 4.55726 18.0299 3.28226 20.0656 2.29705C23.9355 0.424167 28.2529 -0.326535 32.5279 0.130122ZM11.8114 9.03302C11.3948 9.57799 11.0018 10.1428 10.6338 10.7259C8.33947 14.3619 7.11015 18.5681 7.08534 22.8673C7.06054 27.1666 8.24125 31.3867 10.4935 35.0488C12.7457 38.711 15.9793 41.6686 19.8274 43.586C23.6755 45.5034 27.9839 46.3039 32.2639 45.8966C36.5439 45.4893 40.624 43.8905 44.0413 41.2817L40.1027 36.1224C37.6498 37.995 34.7211 39.1425 31.649 39.4349C28.5769 39.7273 25.4843 39.1527 22.7222 37.7764C19.9601 36.4001 17.6391 34.2772 16.0224 31.6485C14.4058 29.0199 13.5583 25.9907 13.5761 22.9048C13.5939 19.8188 14.4763 16.7997 16.1231 14.1898C16.5215 13.5585 16.9608 12.9572 17.4372 12.3893C14.914 10.9364 12.4277 9.47983 11.8114 9.03302Z" fill="#FF8C00"/>
<path d="M32.3041 28.7151L33.4466 29.8793L35.7751 27.5942L34.6325 26.43L32.3041 28.7151ZM10.4824 25.504C7.30031 21.9292 5.14585 18.1421 4.18919 15.064C3.70901 13.5191 3.55925 12.2448 3.66208 11.3073C3.76315 10.3858 4.08151 9.93953 4.41332 9.71682C4.77101 9.47673 5.49677 9.25861 6.88147 9.53486C8.25946 9.80976 10.1082 10.5437 12.4799 11.9411C17.2173 14.7325 23.7429 19.9916 32.3041 28.7151L34.6325 26.43C25.9844 17.6179 19.2281 12.1307 14.136 9.13035C11.5929 7.63191 9.38985 6.70858 7.51974 6.33549C5.65634 5.96375 3.93766 6.10691 2.59514 7.00803C1.22675 7.92651 0.589157 9.40135 0.419116 10.9516C0.250831 12.4858 0.514795 14.2338 1.07378 16.0323C2.19545 19.6412 4.62107 23.826 8.04556 27.6731L10.4824 25.504Z" fill="#FF8C00"/>
<path d="M7.73305 18.4219H11.3054V27.6094L7.73251 28.1198C7.61998 28.2874 7.2767 26.6129 7.22233 25.0573C7.19321 24.2241 7.22213 23.9486 7.22209 23.0156C7.222 20.4635 6.71222 20.974 7.73305 18.4219Z" fill="#FF8C00"/>
<path d="M48.215 37.9795L49.1611 39.3083L51.8186 37.4159L50.8724 36.0871L48.215 37.9795ZM6.31574 8.38165C6.36887 6.87618 6.74572 6.01809 7.1714 5.54131C7.57168 5.09297 8.19498 4.78015 9.21935 4.74398C11.4075 4.66673 14.8161 5.88821 19.1241 8.60142C27.6169 13.9504 38.5629 24.4251 48.215 37.9795L50.8724 36.0871C41.0451 22.2865 29.8068 11.4741 20.8627 5.84089C16.4522 3.06306 12.3292 1.36975 9.10424 1.4836C7.42205 1.54299 5.8684 2.1022 4.73778 3.36856C3.63255 4.60649 3.12456 6.30578 3.05536 8.26658L6.31574 8.38165Z" fill="#FF8C00"/>
</svg>
