<svg width="323" height="119" viewBox="0 0 323 119" fill="none" xmlns="http://www.w3.org/2000/svg">
<g clip-path="url(#clip0_122_462)">
<g clip-path="url(#clip1_122_462)">
<path d="M30.5486 -459L29.1733 -457.625L309.722 -177.076L311.097 -178.451L30.5486 -459Z" fill="#101010"/>
<path d="M29.1733 -457.625L27.7981 -456.25L308.347 -175.701L309.722 -177.076L29.1733 -457.625Z" fill="#303030"/>
<path d="M27.7981 -456.25L26.4229 -454.874L306.972 -174.325L308.347 -175.701L27.7981 -456.25Z" fill="#101010"/>
<path d="M26.4229 -454.874L25.0476 -453.499L305.596 -172.95L306.972 -174.325L26.4229 -454.874Z" fill="#303030"/>
<path d="M25.0476 -453.499L23.6724 -452.124L304.221 -171.575L305.596 -172.95L25.0476 -453.499Z" fill="#101010"/>
<path d="M23.6724 -452.124L22.2971 -450.749L302.846 -170.2L304.221 -171.575L23.6724 -452.124Z" fill="#303030"/>
<path d="M22.2971 -450.749L20.9219 -449.373L301.471 -168.825L302.846 -170.2L22.2971 -450.749Z" fill="#101010"/>
<path d="M20.9219 -449.373L19.5467 -447.998L300.095 -167.449L301.471 -168.825L20.9219 -449.373Z" fill="#303030"/>
<path d="M19.5467 -447.998L18.1714 -446.623L298.72 -166.074L300.095 -167.449L19.5467 -447.998Z" fill="#101010"/>
<path d="M18.1714 -446.623L16.7962 -445.248L297.345 -164.699L298.72 -166.074L18.1714 -446.623Z" fill="#303030"/>
<path d="M16.7962 -445.248L15.421 -443.872L295.97 -163.324L297.345 -164.699L16.7962 -445.248Z" fill="#101010"/>
<path d="M15.421 -443.872L14.0457 -442.497L294.595 -161.948L295.97 -163.324L15.421 -443.872Z" fill="#303030"/>
<path d="M14.0457 -442.497L12.6705 -441.122L293.219 -160.573L294.595 -161.948L14.0457 -442.497Z" fill="#101010"/>
<path d="M12.6705 -441.122L11.2952 -439.747L291.844 -159.198L293.219 -160.573L12.6705 -441.122Z" fill="#303030"/>
<path d="M11.2952 -439.747L9.92 -438.371L290.469 -157.823L291.844 -159.198L11.2952 -439.747Z" fill="#101010"/>
<path d="M9.92 -438.371L8.54476 -436.996L289.094 -156.447L290.469 -157.823L9.92 -438.371Z" fill="#303030"/>
<path d="M8.54476 -436.996L7.16952 -435.621L287.718 -155.072L289.094 -156.447L8.54476 -436.996Z" fill="#101010"/>
<path d="M7.16952 -435.621L5.79428 -434.246L286.343 -153.697L287.718 -155.072L7.16952 -435.621Z" fill="#303030"/>
<path d="M5.79428 -434.246L4.41904 -432.87L284.968 -152.322L286.343 -153.697L5.79428 -434.246Z" fill="#101010"/>
<path d="M4.41904 -432.87L3.0438 -431.495L283.593 -150.946L284.968 -152.322L4.41904 -432.87Z" fill="#303030"/>
<path d="M3.0438 -431.495L1.66856 -430.12L282.217 -149.571L283.593 -150.946L3.0438 -431.495Z" fill="#101010"/>
<path d="M1.66856 -430.12L0.293322 -428.745L280.842 -148.196L282.217 -149.571L1.66856 -430.12Z" fill="#303030"/>
<path d="M0.293322 -428.745L-1.08192 -427.369L279.467 -146.821L280.842 -148.196L0.293322 -428.745Z" fill="#101010"/>
<path d="M-1.08192 -427.369L-2.45716 -425.994L278.092 -145.445L279.467 -146.821L-1.08192 -427.369Z" fill="#303030"/>
<path d="M-2.45716 -425.994L-3.83239 -424.619L276.716 -144.07L278.092 -145.445L-2.45716 -425.994Z" fill="#101010"/>
<path d="M-3.83239 -424.619L-5.20763 -423.244L275.341 -142.695L276.716 -144.07L-3.83239 -424.619Z" fill="#303030"/>
<path d="M-5.20763 -423.244L-6.58287 -421.869L273.966 -141.32L275.341 -142.695L-5.20763 -423.244Z" fill="#101010"/>
<path d="M-6.58287 -421.869L-7.95811 -420.493L272.591 -139.944L273.966 -141.32L-6.58287 -421.869Z" fill="#303030"/>
<path d="M-7.95811 -420.493L-9.33335 -419.118L271.215 -138.569L272.591 -139.944L-7.95811 -420.493Z" fill="#101010"/>
<path d="M-9.33335 -419.118L-10.7086 -417.743L269.84 -137.194L271.215 -138.569L-9.33335 -419.118Z" fill="#303030"/>
<path d="M-10.7086 -417.743L-12.0838 -416.368L268.465 -135.819L269.84 -137.194L-10.7086 -417.743Z" fill="#101010"/>
<path d="M-12.0838 -416.368L-13.4591 -414.992L267.09 -134.444L268.465 -135.819L-12.0838 -416.368Z" fill="#303030"/>
<path d="M-13.4591 -414.992L-14.8343 -413.617L265.714 -133.068L267.09 -134.444L-13.4591 -414.992Z" fill="#101010"/>
<path d="M-14.8343 -413.617L-16.2095 -412.242L264.339 -131.693L265.714 -133.068L-14.8343 -413.617Z" fill="#303030"/>
<path d="M-16.2095 -412.242L-17.5848 -410.867L262.964 -130.318L264.339 -131.693L-16.2095 -412.242Z" fill="#101010"/>
<path d="M-17.5848 -410.867L-18.96 -409.491L261.589 -128.943L262.964 -130.318L-17.5848 -410.867Z" fill="#303030"/>
<path d="M-18.96 -409.491L-20.3353 -408.116L260.214 -127.567L261.589 -128.943L-18.96 -409.491Z" fill="#101010"/>
<path d="M-20.3353 -408.116L-21.7105 -406.741L258.838 -126.192L260.214 -127.567L-20.3353 -408.116Z" fill="#303030"/>
<path d="M-21.7105 -406.741L-23.0857 -405.366L257.463 -124.817L258.838 -126.192L-21.7105 -406.741Z" fill="#101010"/>
<path d="M-23.0857 -405.366L-24.461 -403.99L256.088 -123.442L257.463 -124.817L-23.0857 -405.366Z" fill="#303030"/>
<path d="M-24.461 -403.99L-25.8362 -402.615L254.713 -122.066L256.088 -123.442L-24.461 -403.99Z" fill="#101010"/>
<path d="M-25.8362 -402.615L-27.2115 -401.24L253.337 -120.691L254.713 -122.066L-25.8362 -402.615Z" fill="#303030"/>
<path d="M-27.2115 -401.24L-28.5867 -399.865L251.962 -119.316L253.337 -120.691L-27.2115 -401.24Z" fill="#101010"/>
<path d="M-28.5867 -399.865L-29.9619 -398.489L250.587 -117.941L251.962 -119.316L-28.5867 -399.865Z" fill="#303030"/>
<path d="M-29.9619 -398.489L-31.3372 -397.114L249.212 -116.565L250.587 -117.941L-29.9619 -398.489Z" fill="#101010"/>
<path d="M-31.3372 -397.114L-32.7124 -395.739L247.836 -115.19L249.212 -116.565L-31.3372 -397.114Z" fill="#303030"/>
<path d="M-32.7124 -395.739L-34.0877 -394.364L246.461 -113.815L247.836 -115.19L-32.7124 -395.739Z" fill="#101010"/>
<path d="M-34.0877 -394.364L-35.4629 -392.989L245.086 -112.44L246.461 -113.815L-34.0877 -394.364Z" fill="#303030"/>
<path d="M-35.4629 -392.989L-36.8381 -391.613L243.711 -111.064L245.086 -112.44L-35.4629 -392.989Z" fill="#101010"/>
<path d="M-36.8381 -391.613L-38.2134 -390.238L242.335 -109.689L243.711 -111.064L-36.8381 -391.613Z" fill="#303030"/>
<path d="M-38.2134 -390.238L-39.5886 -388.863L240.96 -108.314L242.335 -109.689L-38.2134 -390.238Z" fill="#101010"/>
<path d="M-39.5886 -388.863L-40.9639 -387.488L239.585 -106.939L240.96 -108.314L-39.5886 -388.863Z" fill="#303030"/>
<path d="M-40.9639 -387.488L-42.3391 -386.112L238.21 -105.564L239.585 -106.939L-40.9639 -387.488Z" fill="#101010"/>
<path d="M-42.3391 -386.112L-43.7143 -384.737L236.834 -104.188L238.21 -105.564L-42.3391 -386.112Z" fill="#303030"/>
<path d="M-43.7143 -384.737L-45.0896 -383.362L235.459 -102.813L236.834 -104.188L-43.7143 -384.737Z" fill="#101010"/>
<path d="M-45.0896 -383.362L-46.4648 -381.987L234.084 -101.438L235.459 -102.813L-45.0896 -383.362Z" fill="#303030"/>
<path d="M-46.4648 -381.987L-47.84 -380.611L232.709 -100.063L234.084 -101.438L-46.4648 -381.987Z" fill="#101010"/>
<path d="M-47.84 -380.611L-49.2153 -379.236L231.334 -98.6873L232.709 -100.063L-47.84 -380.611Z" fill="#303030"/>
<path d="M-49.2153 -379.236L-50.5905 -377.861L229.958 -97.3121L231.334 -98.6873L-49.2153 -379.236Z" fill="#101010"/>
<path d="M-50.5905 -377.861L-51.9658 -376.486L228.583 -95.9368L229.958 -97.3121L-50.5905 -377.861Z" fill="#303030"/>
<path d="M-51.9658 -376.486L-53.341 -375.11L227.208 -94.5616L228.583 -95.9368L-51.9658 -376.486Z" fill="#101010"/>
<path d="M-53.341 -375.11L-54.7162 -373.735L225.833 -93.1864L227.208 -94.5616L-53.341 -375.11Z" fill="#303030"/>
<path d="M-54.7162 -373.735L-56.0915 -372.36L224.457 -91.8111L225.833 -93.1864L-54.7162 -373.735Z" fill="#101010"/>
<path d="M-56.0915 -372.36L-57.4667 -370.985L223.082 -90.4359L224.457 -91.8111L-56.0915 -372.36Z" fill="#303030"/>
<path d="M-57.4667 -370.985L-58.842 -369.609L221.707 -89.0606L223.082 -90.4359L-57.4667 -370.985Z" fill="#101010"/>
<path d="M-58.842 -369.609L-60.2172 -368.234L220.332 -87.6854L221.707 -89.0606L-58.842 -369.609Z" fill="#303030"/>
<path d="M-60.2172 -368.234L-61.5924 -366.859L218.956 -86.3102L220.332 -87.6854L-60.2172 -368.234Z" fill="#101010"/>
<path d="M-61.5924 -366.859L-62.9677 -365.484L217.581 -84.9349L218.956 -86.3102L-61.5924 -366.859Z" fill="#303030"/>
<path d="M-62.9677 -365.484L-64.3429 -364.108L216.206 -83.5597L217.581 -84.9349L-62.9677 -365.484Z" fill="#101010"/>
<path d="M-64.3429 -364.108L-65.7182 -362.733L214.831 -82.1844L216.206 -83.5597L-64.3429 -364.108Z" fill="#303030"/>
<path d="M-65.7182 -362.733L-67.0934 -361.358L213.455 -80.8092L214.831 -82.1844L-65.7182 -362.733Z" fill="#101010"/>
<path d="M-67.0934 -361.358L-68.4686 -359.983L212.08 -79.434L213.455 -80.8092L-67.0934 -361.358Z" fill="#303030"/>
<path d="M-68.4686 -359.983L-69.8439 -358.608L210.705 -78.0587L212.08 -79.434L-68.4686 -359.983Z" fill="#101010"/>
<path d="M-69.8439 -358.608L-71.2191 -357.232L209.33 -76.6835L210.705 -78.0587L-69.8439 -358.608Z" fill="#303030"/>
<path d="M-71.2191 -357.232L-72.5944 -355.857L207.954 -75.3082L209.33 -76.6835L-71.2191 -357.232Z" fill="#101010"/>
<path d="M-72.5944 -355.857L-73.9696 -354.482L206.579 -73.933L207.954 -75.3082L-72.5944 -355.857Z" fill="#303030"/>
<path d="M-73.9696 -354.482L-75.3448 -353.107L205.204 -72.5578L206.579 -73.933L-73.9696 -354.482Z" fill="#101010"/>
<path d="M-75.3448 -353.107L-76.7201 -351.731L203.829 -71.1825L205.204 -72.5578L-75.3448 -353.107Z" fill="#303030"/>
<path d="M-76.7201 -351.731L-78.0953 -350.356L202.453 -69.8073L203.829 -71.1825L-76.7201 -351.731Z" fill="#101010"/>
<path d="M-78.0953 -350.356L-79.4705 -348.981L201.078 -68.4321L202.453 -69.8073L-78.0953 -350.356Z" fill="#303030"/>
<path d="M-79.4705 -348.981L-80.8458 -347.606L199.703 -67.0568L201.078 -68.4321L-79.4705 -348.981Z" fill="#101010"/>
<path d="M-80.8458 -347.606L-82.221 -346.23L198.328 -65.6816L199.703 -67.0568L-80.8458 -347.606Z" fill="#303030"/>
<path d="M-82.221 -346.23L-83.5963 -344.855L196.953 -64.3063L198.328 -65.6816L-82.221 -346.23Z" fill="#101010"/>
<path d="M-83.5963 -344.855L-84.9715 -343.48L195.577 -62.9311L196.953 -64.3063L-83.5963 -344.855Z" fill="#303030"/>
<path d="M-84.9715 -343.48L-86.3467 -342.105L194.202 -61.5559L195.577 -62.9311L-84.9715 -343.48Z" fill="#101010"/>
<path d="M-86.3467 -342.105L-87.722 -340.729L192.827 -60.1806L194.202 -61.5559L-86.3467 -342.105Z" fill="#303030"/>
<path d="M-87.722 -340.729L-89.0972 -339.354L191.452 -58.8054L192.827 -60.1806L-87.722 -340.729Z" fill="#101010"/>
<path d="M-89.0972 -339.354L-90.4725 -337.979L190.076 -57.4301L191.452 -58.8054L-89.0972 -339.354Z" fill="#303030"/>
<path d="M-90.4725 -337.979L-91.8477 -336.604L188.701 -56.0549L190.076 -57.4301L-90.4725 -337.979Z" fill="#101010"/>
<path d="M-91.8477 -336.604L-93.2229 -335.228L187.326 -54.6797L188.701 -56.0549L-91.8477 -336.604Z" fill="#303030"/>
<path d="M-93.2229 -335.228L-94.5982 -333.853L185.951 -53.3044L187.326 -54.6797L-93.2229 -335.228Z" fill="#101010"/>
<path d="M-94.5982 -333.853L-95.9734 -332.478L184.575 -51.9292L185.951 -53.3044L-94.5982 -333.853Z" fill="#303030"/>
<path d="M-95.9734 -332.478L-97.3487 -331.103L183.2 -50.5539L184.575 -51.9292L-95.9734 -332.478Z" fill="#101010"/>
<path d="M-97.3487 -331.103L-98.7239 -329.728L181.825 -49.1787L183.2 -50.5539L-97.3487 -331.103Z" fill="#303030"/>
<path d="M-98.7239 -329.728L-100.099 -328.352L180.45 -47.8035L181.825 -49.1787L-98.7239 -329.728Z" fill="#101010"/>
<path d="M-100.099 -328.352L-101.474 -326.977L179.074 -46.4282L180.45 -47.8035L-100.099 -328.352Z" fill="#303030"/>
<path d="M-101.474 -326.977L-102.85 -325.602L177.699 -45.053L179.074 -46.4282L-101.474 -326.977Z" fill="#101010"/>
<path d="M-102.85 -325.602L-104.225 -324.227L176.324 -43.6777L177.699 -45.053L-102.85 -325.602Z" fill="#303030"/>
<path d="M-104.225 -324.227L-105.6 -322.851L174.949 -42.3025L176.324 -43.6777L-104.225 -324.227Z" fill="#101010"/>
<path d="M-105.6 -322.851L-106.975 -321.476L173.573 -40.9273L174.949 -42.3025L-105.6 -322.851Z" fill="#303030"/>
<path d="M-106.975 -321.476L-108.351 -320.101L172.198 -39.552L173.573 -40.9273L-106.975 -321.476Z" fill="#101010"/>
<path d="M-108.351 -320.101L-109.726 -318.726L170.823 -38.1768L172.198 -39.552L-108.351 -320.101Z" fill="#303030"/>
<path d="M-109.726 -318.726L-111.101 -317.35L169.448 -36.8016L170.823 -38.1768L-109.726 -318.726Z" fill="#101010"/>
<path d="M-111.101 -317.35L-112.476 -315.975L168.073 -35.4263L169.448 -36.8016L-111.101 -317.35Z" fill="#303030"/>
<path d="M-112.476 -315.975L-113.852 -314.6L166.697 -34.0511L168.073 -35.4263L-112.476 -315.975Z" fill="#101010"/>
<path d="M-113.852 -314.6L-115.227 -313.225L165.322 -32.6758L166.697 -34.0511L-113.852 -314.6Z" fill="#303030"/>
<path d="M-115.227 -313.225L-116.602 -311.849L163.947 -31.3006L165.322 -32.6758L-115.227 -313.225Z" fill="#101010"/>
<path d="M-116.602 -311.849L-117.977 -310.474L162.572 -29.9254L163.947 -31.3006L-116.602 -311.849Z" fill="#303030"/>
<path d="M-117.977 -310.474L-119.352 -309.099L161.196 -28.5501L162.572 -29.9254L-117.977 -310.474Z" fill="#101010"/>
<path d="M-119.352 -309.099L-120.728 -307.724L159.821 -27.1749L161.196 -28.5501L-119.352 -309.099Z" fill="#303030"/>
<path d="M-120.728 -307.724L-122.103 -306.348L158.446 -25.7996L159.821 -27.1749L-120.728 -307.724Z" fill="#101010"/>
<path d="M-122.103 -306.348L-123.478 -304.973L157.071 -24.4244L158.446 -25.7996L-122.103 -306.348Z" fill="#303030"/>
<path d="M-123.478 -304.973L-124.853 -303.598L155.695 -23.0492L157.071 -24.4244L-123.478 -304.973Z" fill="#101010"/>
<path d="M-124.853 -303.598L-126.229 -302.223L154.32 -21.6739L155.695 -23.0492L-124.853 -303.598Z" fill="#303030"/>
<path d="M-126.229 -302.223L-127.604 -300.847L152.945 -20.2987L154.32 -21.6739L-126.229 -302.223Z" fill="#101010"/>
<path d="M-127.604 -300.847L-128.979 -299.472L151.57 -18.9234L152.945 -20.2987L-127.604 -300.847Z" fill="#303030"/>
<path d="M-128.979 -299.472L-130.354 -298.097L150.194 -17.5482L151.57 -18.9234L-128.979 -299.472Z" fill="#101010"/>
<path d="M-130.354 -298.097L-131.73 -296.722L148.819 -16.173L150.194 -17.5482L-130.354 -298.097Z" fill="#303030"/>
<path d="M-131.73 -296.722L-133.105 -295.347L147.444 -14.7977L148.819 -16.173L-131.73 -296.722Z" fill="#101010"/>
<path d="M-133.105 -295.347L-134.48 -293.971L146.069 -13.4225L147.444 -14.7977L-133.105 -295.347Z" fill="#303030"/>
<path d="M-134.48 -293.971L-135.855 -292.596L144.693 -12.0472L146.069 -13.4225L-134.48 -293.971Z" fill="#101010"/>
<path d="M-135.855 -292.596L-137.231 -291.221L143.318 -10.672L144.693 -12.0472L-135.855 -292.596Z" fill="#303030"/>
<path d="M-137.231 -291.221L-138.606 -289.846L141.943 -9.29677L143.318 -10.672L-137.231 -291.221Z" fill="#101010"/>
<path d="M-138.606 -289.846L-139.981 -288.47L140.568 -7.92153L141.943 -9.29677L-138.606 -289.846Z" fill="#303030"/>
<path d="M-139.981 -288.47L-141.356 -287.095L139.192 -6.54629L140.568 -7.92153L-139.981 -288.47Z" fill="#101010"/>
<path d="M-141.356 -287.095L-142.732 -285.72L137.817 -5.17106L139.192 -6.54629L-141.356 -287.095Z" fill="#303030"/>
<path d="M-142.732 -285.72L-144.107 -284.345L136.442 -3.79582L137.817 -5.17106L-142.732 -285.72Z" fill="#101010"/>
<path d="M-144.107 -284.345L-145.482 -282.969L135.067 -2.42057L136.442 -3.79582L-144.107 -284.345Z" fill="#303030"/>
<path d="M-145.482 -282.969L-146.857 -281.594L133.692 -1.04533L135.067 -2.42057L-145.482 -282.969Z" fill="#101010"/>
<path d="M-146.857 -281.594L-148.233 -280.219L132.316 0.329909L133.692 -1.04533L-146.857 -281.594Z" fill="#303030"/>
<path d="M-148.233 -280.219L-149.608 -278.844L130.941 1.70514L132.316 0.329909L-148.233 -280.219Z" fill="#101010"/>
<path d="M-149.608 -278.844L-150.983 -277.468L129.566 3.08039L130.941 1.70514L-149.608 -278.844Z" fill="#303030"/>
<path d="M-150.983 -277.468L-152.358 -276.093L128.191 4.45561L129.566 3.08039L-150.983 -277.468Z" fill="#101010"/>
<path d="M-152.358 -276.093L-153.733 -274.718L126.815 5.83085L128.191 4.45561L-152.358 -276.093Z" fill="#303030"/>
<path d="M-153.733 -274.718L-155.109 -273.343L125.44 7.20609L126.815 5.83085L-153.733 -274.718Z" fill="#101010"/>
<path d="M-155.109 -273.343L-156.484 -271.967L124.065 8.58134L125.44 7.20609L-155.109 -273.343Z" fill="#303030"/>
<path d="M-156.484 -271.967L-157.859 -270.592L122.69 9.95658L124.065 8.58134L-156.484 -271.967Z" fill="#101010"/>
<path d="M-157.859 -270.592L-159.234 -269.217L121.314 11.3318L122.69 9.95658L-157.859 -270.592Z" fill="#303030"/>
<path d="M-159.234 -269.217L-160.61 -267.842L119.939 12.7071L121.314 11.3318L-159.234 -269.217Z" fill="#101010"/>
<path d="M-160.61 -267.842L-161.985 -266.466L118.564 14.0823L119.939 12.7071L-160.61 -267.842Z" fill="#303030"/>
<path d="M-161.985 -266.466L-163.36 -265.091L117.189 15.4575L118.564 14.0823L-161.985 -266.466Z" fill="#101010"/>
<path d="M-163.36 -265.091L-164.735 -263.716L115.813 16.8328L117.189 15.4575L-163.36 -265.091Z" fill="#303030"/>
<path d="M-164.735 -263.716L-166.111 -262.341L114.438 18.208L115.813 16.8328L-164.735 -263.716Z" fill="#101010"/>
<path d="M-166.111 -262.341L-167.486 -260.966L113.063 19.5832L114.438 18.208L-166.111 -262.341Z" fill="#303030"/>
<path d="M-167.486 -260.966L-168.861 -259.59L111.688 20.9585L113.063 19.5832L-167.486 -260.966Z" fill="#101010"/>
<path d="M-168.861 -259.59L-170.236 -258.215L110.312 22.3337L111.688 20.9585L-168.861 -259.59Z" fill="#303030"/>
<path d="M-170.236 -258.215L-171.612 -256.84L108.937 23.709L110.312 22.3337L-170.236 -258.215Z" fill="#101010"/>
<path d="M-171.612 -256.84L-172.987 -255.465L107.562 25.0842L108.937 23.709L-171.612 -256.84Z" fill="#303030"/>
<path d="M-172.987 -255.465L-174.362 -254.089L106.187 26.4595L107.562 25.0842L-172.987 -255.465Z" fill="#101010"/>
<path d="M-174.362 -254.089L-175.737 -252.714L104.811 27.8347L106.187 26.4595L-174.362 -254.089Z" fill="#303030"/>
<path d="M-175.737 -252.714L-177.113 -251.339L103.436 29.2099L104.811 27.8347L-175.737 -252.714Z" fill="#101010"/>
<path d="M-177.113 -251.339L-178.488 -249.964L102.061 30.5852L103.436 29.2099L-177.113 -251.339Z" fill="#303030"/>
<path d="M-178.488 -249.964L-179.863 -248.588L100.686 31.9604L102.061 30.5852L-178.488 -249.964Z" fill="#101010"/>
<path d="M-179.863 -248.588L-181.238 -247.213L99.3106 33.3356L100.686 31.9604L-179.863 -248.588Z" fill="#303030"/>
<path d="M-181.238 -247.213L-182.613 -245.838L97.9353 34.7109L99.3106 33.3356L-181.238 -247.213Z" fill="#101010"/>
<path d="M-182.613 -245.838L-183.989 -244.463L96.5601 36.0861L97.9353 34.7109L-182.613 -245.838Z" fill="#303030"/>
<path d="M-183.989 -244.463L-185.364 -243.087L95.1848 37.4614L96.5601 36.0861L-183.989 -244.463Z" fill="#101010"/>
<path d="M-185.364 -243.087L-186.739 -241.712L93.8096 38.8366L95.1848 37.4614L-185.364 -243.087Z" fill="#303030"/>
<path d="M-186.739 -241.712L-188.114 -240.337L92.4343 40.2118L93.8096 38.8366L-186.739 -241.712Z" fill="#101010"/>
<path d="M-188.114 -240.337L-189.49 -238.962L91.0591 41.5871L92.4343 40.2118L-188.114 -240.337Z" fill="#303030"/>
<path d="M-189.49 -238.962L-190.865 -237.586L89.6839 42.9623L91.0591 41.5871L-189.49 -238.962Z" fill="#101010"/>
<path d="M-190.865 -237.586L-192.24 -236.211L88.3086 44.3376L89.6839 42.9623L-190.865 -237.586Z" fill="#303030"/>
<path d="M-192.24 -236.211L-193.615 -234.836L86.9334 45.7128L88.3086 44.3376L-192.24 -236.211Z" fill="#101010"/>
<path d="M-193.615 -234.836L-194.991 -233.461L85.5582 47.088L86.9334 45.7128L-193.615 -234.836Z" fill="#303030"/>
<path d="M-194.991 -233.461L-196.366 -232.086L84.1829 48.4633L85.5582 47.088L-194.991 -233.461Z" fill="#101010"/>
<path d="M-196.366 -232.086L-197.741 -230.71L82.8077 49.8385L84.1829 48.4633L-196.366 -232.086Z" fill="#303030"/>
<path d="M-197.741 -230.71L-199.116 -229.335L81.4324 51.2138L82.8077 49.8385L-197.741 -230.71Z" fill="#101010"/>
<path d="M-199.116 -229.335L-200.492 -227.96L80.0572 52.589L81.4324 51.2138L-199.116 -229.335Z" fill="#303030"/>
<path d="M-200.492 -227.96L-201.867 -226.585L78.682 53.9642L80.0572 52.589L-200.492 -227.96Z" fill="#101010"/>
<path d="M-201.867 -226.585L-203.242 -225.209L77.3067 55.3395L78.682 53.9642L-201.867 -226.585Z" fill="#303030"/>
<path d="M-203.242 -225.209L-204.617 -223.834L75.9315 56.7147L77.3067 55.3395L-203.242 -225.209Z" fill="#101010"/>
<path d="M-204.617 -223.834L-205.993 -222.459L74.5562 58.0899L75.9315 56.7147L-204.617 -223.834Z" fill="#303030"/>
<path d="M-205.993 -222.459L-207.368 -221.084L73.181 59.4652L74.5562 58.0899L-205.993 -222.459Z" fill="#101010"/>
<path d="M-207.368 -221.084L-208.743 -219.708L71.8058 60.8404L73.181 59.4652L-207.368 -221.084Z" fill="#303030"/>
<path d="M-208.743 -219.708L-210.118 -218.333L70.4305 62.2157L71.8058 60.8404L-208.743 -219.708Z" fill="#101010"/>
<path d="M-210.118 -218.333L-211.494 -216.958L69.0553 63.5909L70.4305 62.2157L-210.118 -218.333Z" fill="#303030"/>
<path d="M-211.494 -216.958L-212.869 -215.583L67.68 64.9662L69.0553 63.5909L-211.494 -216.958Z" fill="#101010"/>
<path d="M-212.869 -215.583L-214.244 -214.207L66.3048 66.3414L67.68 64.9662L-212.869 -215.583Z" fill="#303030"/>
<path d="M-214.244 -214.207L-215.619 -212.832L64.9296 67.7166L66.3048 66.3414L-214.244 -214.207Z" fill="#101010"/>
<path d="M-215.619 -212.832L-216.994 -211.457L63.5543 69.0919L64.9296 67.7166L-215.619 -212.832Z" fill="#303030"/>
<path d="M-216.994 -211.457L-218.37 -210.082L62.1791 70.4671L63.5543 69.0919L-216.994 -211.457Z" fill="#101010"/>
<path d="M-218.37 -210.082L-219.745 -208.706L60.8039 71.8423L62.1791 70.4671L-218.37 -210.082Z" fill="#303030"/>
<path d="M-219.745 -208.706L-221.12 -207.331L59.4286 73.2176L60.8039 71.8423L-219.745 -208.706Z" fill="#101010"/>
<path d="M-221.12 -207.331L-222.495 -205.956L58.0534 74.5928L59.4286 73.2176L-221.12 -207.331Z" fill="#303030"/>
<path d="M-222.495 -205.956L-223.871 -204.581L56.6781 75.9681L58.0534 74.5928L-222.495 -205.956Z" fill="#101010"/>
<path d="M-223.871 -204.581L-225.246 -203.205L55.3029 77.3433L56.6781 75.9681L-223.871 -204.581Z" fill="#303030"/>
<path d="M-225.246 -203.205L-226.621 -201.83L53.9276 78.7185L55.3029 77.3433L-225.246 -203.205Z" fill="#101010"/>
<path d="M-226.621 -201.83L-227.996 -200.455L52.5524 80.0938L53.9276 78.7185L-226.621 -201.83Z" fill="#303030"/>
<path d="M-227.996 -200.455L-229.372 -199.08L51.1772 81.469L52.5524 80.0938L-227.996 -200.455Z" fill="#101010"/>
<path d="M-229.372 -199.08L-230.747 -197.705L49.8019 82.8442L51.1772 81.469L-229.372 -199.08Z" fill="#303030"/>
<path d="M-230.747 -197.705L-232.122 -196.329L48.4267 84.2195L49.8019 82.8442L-230.747 -197.705Z" fill="#101010"/>
<path d="M-232.122 -196.329L-233.497 -194.954L47.0515 85.5947L48.4267 84.2195L-232.122 -196.329Z" fill="#303030"/>
<path d="M-233.497 -194.954L-234.873 -193.579L45.6762 86.97L47.0515 85.5947L-233.497 -194.954Z" fill="#101010"/>
<path d="M-234.873 -193.579L-236.248 -192.204L44.301 88.3452L45.6762 86.97L-234.873 -193.579Z" fill="#303030"/>
<path d="M-236.248 -192.204L-237.623 -190.828L42.9257 89.7205L44.301 88.3452L-236.248 -192.204Z" fill="#101010"/>
<path d="M-237.623 -190.828L-238.998 -189.453L41.5505 91.0957L42.9257 89.7205L-237.623 -190.828Z" fill="#303030"/>
<path d="M-238.998 -189.453L-240.374 -188.078L40.1753 92.4709L41.5505 91.0957L-238.998 -189.453Z" fill="#101010"/>
<path d="M-240.374 -188.078L-241.749 -186.703L38.8 93.8462L40.1753 92.4709L-240.374 -188.078Z" fill="#303030"/>
<path d="M-241.749 -186.703L-243.124 -185.327L37.4248 95.2214L38.8 93.8462L-241.749 -186.703Z" fill="#101010"/>
<path d="M-243.124 -185.327L-244.499 -183.952L36.0496 96.5966L37.4248 95.2214L-243.124 -185.327Z" fill="#303030"/>
<path d="M-244.499 -183.952L-245.874 -182.577L34.6743 97.9719L36.0496 96.5966L-244.499 -183.952Z" fill="#101010"/>
<path d="M-245.874 -182.577L-247.25 -181.202L33.2991 99.3471L34.6743 97.9719L-245.874 -182.577Z" fill="#303030"/>
<path d="M-247.25 -181.202L-248.625 -179.826L31.9238 100.722L33.2991 99.3471L-247.25 -181.202Z" fill="#101010"/>
<path d="M-248.625 -179.826L-250 -178.451L30.5486 102.098L31.9238 100.722L-248.625 -179.826Z" fill="#303030"/>
<path d="M311.098 -178.451L309.722 -177.076L590.271 103.473L591.646 102.098L311.098 -178.451Z" fill="#101010"/>
<path d="M309.722 -177.076L308.347 -175.7L588.896 104.848L590.271 103.473L309.722 -177.076Z" fill="#303030"/>
<path d="M308.347 -175.7L306.972 -174.325L587.521 106.224L588.896 104.848L308.347 -175.7Z" fill="#101010"/>
<path d="M306.972 -174.325L305.597 -172.95L586.145 107.599L587.521 106.224L306.972 -174.325Z" fill="#303030"/>
<path d="M305.597 -172.95L304.221 -171.575L584.77 108.974L586.145 107.599L305.597 -172.95Z" fill="#101010"/>
<path d="M304.221 -171.575L302.846 -170.2L583.395 110.349L584.77 108.974L304.221 -171.575Z" fill="#303030"/>
<path d="M302.846 -170.2L301.471 -168.824L582.02 111.725L583.395 110.349L302.846 -170.2Z" fill="#101010"/>
<path d="M301.471 -168.824L300.096 -167.449L580.645 113.1L582.02 111.725L301.471 -168.824Z" fill="#303030"/>
<path d="M300.096 -167.449L298.721 -166.074L579.269 114.475L580.645 113.1L300.096 -167.449Z" fill="#101010"/>
<path d="M298.721 -166.074L297.345 -164.699L577.894 115.85L579.269 114.475L298.721 -166.074Z" fill="#303030"/>
<path d="M297.345 -164.699L295.97 -163.323L576.519 117.225L577.894 115.85L297.345 -164.699Z" fill="#101010"/>
<path d="M295.97 -163.323L294.595 -161.948L575.144 118.601L576.519 117.225L295.97 -163.323Z" fill="#303030"/>
<path d="M294.595 -161.948L293.22 -160.573L573.768 119.976L575.144 118.601L294.595 -161.948Z" fill="#101010"/>
<path d="M293.22 -160.573L291.844 -159.198L572.393 121.351L573.768 119.976L293.22 -160.573Z" fill="#303030"/>
<path d="M291.844 -159.198L290.469 -157.822L571.018 122.726L572.393 121.351L291.844 -159.198Z" fill="#101010"/>
<path d="M290.469 -157.822L289.094 -156.447L569.643 124.102L571.018 122.726L290.469 -157.822Z" fill="#303030"/>
<path d="M289.094 -156.447L287.719 -155.072L568.267 125.477L569.643 124.102L289.094 -156.447Z" fill="#101010"/>
<path d="M287.719 -155.072L286.343 -153.697L566.892 126.852L568.267 125.477L287.719 -155.072Z" fill="#303030"/>
<path d="M286.343 -153.697L284.968 -152.321L565.517 128.227L566.892 126.852L286.343 -153.697Z" fill="#101010"/>
<path d="M284.968 -152.321L283.593 -150.946L564.142 129.603L565.517 128.227L284.968 -152.321Z" fill="#303030"/>
<path d="M283.593 -150.946L282.218 -149.571L562.766 130.978L564.142 129.603L283.593 -150.946Z" fill="#101010"/>
<path d="M282.218 -149.571L280.842 -148.196L561.391 132.353L562.766 130.978L282.218 -149.571Z" fill="#303030"/>
<path d="M280.842 -148.196L279.467 -146.82L560.016 133.728L561.391 132.353L280.842 -148.196Z" fill="#101010"/>
<path d="M279.467 -146.82L278.092 -145.445L558.641 135.104L560.016 133.728L279.467 -146.82Z" fill="#303030"/>
<path d="M278.092 -145.445L276.717 -144.07L557.265 136.479L558.641 135.104L278.092 -145.445Z" fill="#101010"/>
<path d="M276.717 -144.07L275.341 -142.695L555.89 137.854L557.265 136.479L276.717 -144.07Z" fill="#303030"/>
<path d="M275.341 -142.695L273.966 -141.32L554.515 139.229L555.89 137.854L275.341 -142.695Z" fill="#101010"/>
<path d="M273.966 -141.32L272.591 -139.944L553.14 140.605L554.515 139.229L273.966 -141.32Z" fill="#303030"/>
<path d="M272.591 -139.944L271.216 -138.569L551.765 141.98L553.14 140.605L272.591 -139.944Z" fill="#101010"/>
<path d="M271.216 -138.569L269.84 -137.194L550.389 143.355L551.765 141.98L271.216 -138.569Z" fill="#303030"/>
<path d="M269.84 -137.194L268.465 -135.819L549.014 144.73L550.389 143.355L269.84 -137.194Z" fill="#101010"/>
<path d="M268.465 -135.819L267.09 -134.443L547.639 146.105L549.014 144.73L268.465 -135.819Z" fill="#303030"/>
<path d="M267.09 -134.443L265.715 -133.068L546.264 147.481L547.639 146.105L267.09 -134.443Z" fill="#101010"/>
<path d="M265.715 -133.068L264.34 -131.693L544.888 148.856L546.264 147.481L265.715 -133.068Z" fill="#303030"/>
<path d="M264.34 -131.693L262.964 -130.318L543.513 150.231L544.888 148.856L264.34 -131.693Z" fill="#101010"/>
<path d="M262.964 -130.318L261.589 -128.942L542.138 151.606L543.513 150.231L262.964 -130.318Z" fill="#303030"/>
<path d="M261.589 -128.942L260.214 -127.567L540.763 152.982L542.138 151.606L261.589 -128.942Z" fill="#101010"/>
<path d="M260.214 -127.567L258.839 -126.192L539.387 154.357L540.763 152.982L260.214 -127.567Z" fill="#303030"/>
<path d="M258.839 -126.192L257.463 -124.817L538.012 155.732L539.387 154.357L258.839 -126.192Z" fill="#101010"/>
<path d="M257.463 -124.817L256.088 -123.441L536.637 157.107L538.012 155.732L257.463 -124.817Z" fill="#303030"/>
<path d="M256.088 -123.441L254.713 -122.066L535.262 158.483L536.637 157.107L256.088 -123.441Z" fill="#101010"/>
<path d="M254.713 -122.066L253.338 -120.691L533.886 159.858L535.262 158.483L254.713 -122.066Z" fill="#303030"/>
<path d="M253.338 -120.691L251.962 -119.316L532.511 161.233L533.886 159.858L253.338 -120.691Z" fill="#101010"/>
<path d="M251.962 -119.316L250.587 -117.94L531.136 162.608L532.511 161.233L251.962 -119.316Z" fill="#303030"/>
<path d="M250.587 -117.94L249.212 -116.565L529.761 163.984L531.136 162.608L250.587 -117.94Z" fill="#101010"/>
<path d="M249.212 -116.565L247.837 -115.19L528.385 165.359L529.761 163.984L249.212 -116.565Z" fill="#303030"/>
<path d="M247.837 -115.19L246.461 -113.815L527.01 166.734L528.385 165.359L247.837 -115.19Z" fill="#101010"/>
<path d="M246.461 -113.815L245.086 -112.439L525.635 168.109L527.01 166.734L246.461 -113.815Z" fill="#303030"/>
<path d="M245.086 -112.439L243.711 -111.064L524.26 169.485L525.635 168.109L245.086 -112.439Z" fill="#101010"/>
<path d="M243.711 -111.064L242.336 -109.689L522.884 170.86L524.26 169.485L243.711 -111.064Z" fill="#303030"/>
<path d="M242.336 -109.689L240.96 -108.314L521.509 172.235L522.884 170.86L242.336 -109.689Z" fill="#101010"/>
<path d="M240.96 -108.314L239.585 -106.939L520.134 173.61L521.509 172.235L240.96 -108.314Z" fill="#303030"/>
<path d="M239.585 -106.939L238.21 -105.563L518.759 174.986L520.134 173.61L239.585 -106.939Z" fill="#101010"/>
<path d="M238.21 -105.563L236.835 -104.188L517.384 176.361L518.759 174.986L238.21 -105.563Z" fill="#303030"/>
<path d="M236.835 -104.188L235.46 -102.813L516.008 177.736L517.384 176.361L236.835 -104.188Z" fill="#101010"/>
<path d="M235.46 -102.813L234.084 -101.438L514.633 179.111L516.008 177.736L235.46 -102.813Z" fill="#303030"/>
<path d="M234.084 -101.438L232.709 -100.062L513.258 180.486L514.633 179.111L234.084 -101.438Z" fill="#101010"/>
<path d="M232.709 -100.062L231.334 -98.6871L511.883 181.862L513.258 180.486L232.709 -100.062Z" fill="#303030"/>
<path d="M231.334 -98.6871L229.959 -97.3118L510.507 183.237L511.883 181.862L231.334 -98.6871Z" fill="#101010"/>
<path d="M229.959 -97.3118L228.583 -95.9366L509.132 184.612L510.507 183.237L229.959 -97.3118Z" fill="#303030"/>
<path d="M228.583 -95.9366L227.208 -94.5614L507.757 185.987L509.132 184.612L228.583 -95.9366Z" fill="#101010"/>
<path d="M227.208 -94.5614L225.833 -93.1861L506.382 187.363L507.757 185.987L227.208 -94.5614Z" fill="#303030"/>
<path d="M225.833 -93.1861L224.458 -91.8109L505.006 188.738L506.382 187.363L225.833 -93.1861Z" fill="#101010"/>
<path d="M224.458 -91.8109L223.082 -90.4357L503.631 190.113L505.006 188.738L224.458 -91.8109Z" fill="#303030"/>
<path d="M223.082 -90.4357L221.707 -89.0604L502.256 191.488L503.631 190.113L223.082 -90.4357Z" fill="#101010"/>
<path d="M221.707 -89.0604L220.332 -87.6852L500.881 192.864L502.256 191.488L221.707 -89.0604Z" fill="#303030"/>
<path d="M220.332 -87.6852L218.957 -86.3099L499.505 194.239L500.881 192.864L220.332 -87.6852Z" fill="#101010"/>
<path d="M218.957 -86.3099L217.581 -84.9347L498.13 195.614L499.505 194.239L218.957 -86.3099Z" fill="#303030"/>
<path d="M217.581 -84.9347L216.206 -83.5595L496.755 196.989L498.13 195.614L217.581 -84.9347Z" fill="#101010"/>
<path d="M216.206 -83.5595L214.831 -82.1842L495.38 198.365L496.755 196.989L216.206 -83.5595Z" fill="#303030"/>
<path d="M214.831 -82.1842L213.456 -80.809L494.004 199.74L495.38 198.365L214.831 -82.1842Z" fill="#101010"/>
<path d="M213.456 -80.809L212.08 -79.4337L492.629 201.115L494.004 199.74L213.456 -80.809Z" fill="#303030"/>
<path d="M212.08 -79.4337L210.705 -78.0585L491.254 202.49L492.629 201.115L212.08 -79.4337Z" fill="#101010"/>
<path d="M210.705 -78.0585L209.33 -76.6833L489.879 203.866L491.254 202.49L210.705 -78.0585Z" fill="#303030"/>
<path d="M209.33 -76.6833L207.955 -75.308L488.504 205.241L489.879 203.866L209.33 -76.6833Z" fill="#101010"/>
<path d="M207.955 -75.308L206.579 -73.9328L487.128 206.616L488.504 205.241L207.955 -75.308Z" fill="#303030"/>
<path d="M206.579 -73.9328L205.204 -72.5575L485.753 207.991L487.128 206.616L206.579 -73.9328Z" fill="#101010"/>
<path d="M205.204 -72.5575L203.829 -71.1823L484.378 209.366L485.753 207.991L205.204 -72.5575Z" fill="#303030"/>
<path d="M203.829 -71.1823L202.454 -69.8071L483.003 210.742L484.378 209.366L203.829 -71.1823Z" fill="#101010"/>
<path d="M202.454 -69.8071L201.079 -68.4318L481.627 212.117L483.003 210.742L202.454 -69.8071Z" fill="#303030"/>
<path d="M201.079 -68.4318L199.703 -67.0566L480.252 213.492L481.627 212.117L201.079 -68.4318Z" fill="#101010"/>
<path d="M199.703 -67.0566L198.328 -65.6813L478.877 214.867L480.252 213.492L199.703 -67.0566Z" fill="#303030"/>
<path d="M198.328 -65.6813L196.953 -64.3061L477.502 216.243L478.877 214.867L198.328 -65.6813Z" fill="#101010"/>
<path d="M196.953 -64.3061L195.578 -62.9309L476.126 217.618L477.502 216.243L196.953 -64.3061Z" fill="#303030"/>
<path d="M195.578 -62.9309L194.202 -61.5556L474.751 218.993L476.126 217.618L195.578 -62.9309Z" fill="#101010"/>
<path d="M194.202 -61.5556L192.827 -60.1804L473.376 220.368L474.751 218.993L194.202 -61.5556Z" fill="#303030"/>
<path d="M192.827 -60.1804L191.452 -58.8052L472.001 221.744L473.376 220.368L192.827 -60.1804Z" fill="#101010"/>
<path d="M191.452 -58.8052L190.077 -57.4299L470.625 223.119L472.001 221.744L191.452 -58.8052Z" fill="#303030"/>
<path d="M190.077 -57.4299L188.701 -56.0547L469.25 224.494L470.625 223.119L190.077 -57.4299Z" fill="#101010"/>
<path d="M188.701 -56.0547L187.326 -54.6794L467.875 225.869L469.25 224.494L188.701 -56.0547Z" fill="#303030"/>
<path d="M187.326 -54.6794L185.951 -53.3042L466.5 227.245L467.875 225.869L187.326 -54.6794Z" fill="#101010"/>
<path d="M185.951 -53.3042L184.576 -51.929L465.124 228.62L466.5 227.245L185.951 -53.3042Z" fill="#303030"/>
<path d="M184.576 -51.929L183.2 -50.5537L463.749 229.995L465.124 228.62L184.576 -51.929Z" fill="#101010"/>
<path d="M183.2 -50.5537L181.825 -49.1785L462.374 231.37L463.749 229.995L183.2 -50.5537Z" fill="#303030"/>
<path d="M181.825 -49.1785L180.45 -47.8032L460.999 232.746L462.374 231.37L181.825 -49.1785Z" fill="#101010"/>
<path d="M180.45 -47.8032L179.075 -46.428L459.623 234.121L460.999 232.746L180.45 -47.8032Z" fill="#303030"/>
<path d="M179.075 -46.428L177.699 -45.0528L458.248 235.496L459.623 234.121L179.075 -46.428Z" fill="#101010"/>
<path d="M177.699 -45.0528L176.324 -43.6775L456.873 236.871L458.248 235.496L177.699 -45.0528Z" fill="#303030"/>
<path d="M176.324 -43.6775L174.949 -42.3023L455.498 238.247L456.873 236.871L176.324 -43.6775Z" fill="#101010"/>
<path d="M174.949 -42.3023L173.574 -40.927L454.123 239.622L455.498 238.247L174.949 -42.3023Z" fill="#303030"/>
<path d="M173.574 -40.927L172.198 -39.5518L452.747 240.997L454.123 239.622L173.574 -40.927Z" fill="#101010"/>
<path d="M172.198 -39.5518L170.823 -38.1766L451.372 242.372L452.747 240.997L172.198 -39.5518Z" fill="#303030"/>
<path d="M170.823 -38.1766L169.448 -36.8013L449.997 243.747L451.372 242.372L170.823 -38.1766Z" fill="#101010"/>
<path d="M169.448 -36.8013L168.073 -35.4261L448.622 245.123L449.997 243.747L169.448 -36.8013Z" fill="#303030"/>
<path d="M168.073 -35.4261L166.698 -34.0508L447.246 246.498L448.622 245.123L168.073 -35.4261Z" fill="#101010"/>
<path d="M166.698 -34.0508L165.322 -32.6756L445.871 247.873L447.246 246.498L166.698 -34.0508Z" fill="#303030"/>
<path d="M165.322 -32.6756L163.947 -31.3004L444.496 249.248L445.871 247.873L165.322 -32.6756Z" fill="#101010"/>
<path d="M163.947 -31.3004L162.572 -29.9251L443.121 250.624L444.496 249.248L163.947 -31.3004Z" fill="#303030"/>
<path d="M162.572 -29.9251L161.197 -28.5499L441.745 251.999L443.121 250.624L162.572 -29.9251Z" fill="#101010"/>
<path d="M161.197 -28.5499L159.821 -27.1746L440.37 253.374L441.745 251.999L161.197 -28.5499Z" fill="#303030"/>
<path d="M159.821 -27.1746L158.446 -25.7994L438.995 254.749L440.37 253.374L159.821 -27.1746Z" fill="#101010"/>
<path d="M158.446 -25.7994L157.071 -24.4242L437.62 256.125L438.995 254.749L158.446 -25.7994Z" fill="#303030"/>
<path d="M157.071 -24.4242L155.696 -23.0489L436.244 257.5L437.62 256.125L157.071 -24.4242Z" fill="#101010"/>
<path d="M155.696 -23.0489L154.32 -21.6737L434.869 258.875L436.244 257.5L155.696 -23.0489Z" fill="#303030"/>
<path d="M154.32 -21.6737L152.945 -20.2985L433.494 260.25L434.869 258.875L154.32 -21.6737Z" fill="#101010"/>
<path d="M152.945 -20.2985L151.57 -18.9232L432.119 261.626L433.494 260.25L152.945 -20.2985Z" fill="#303030"/>
<path d="M151.57 -18.9232L150.195 -17.548L430.743 263.001L432.119 261.626L151.57 -18.9232Z" fill="#101010"/>
<path d="M150.195 -17.548L148.819 -16.1727L429.368 264.376L430.743 263.001L150.195 -17.548Z" fill="#303030"/>
<path d="M148.819 -16.1727L147.444 -14.7975L427.993 265.751L429.368 264.376L148.819 -16.1727Z" fill="#101010"/>
<path d="M147.444 -14.7975L146.069 -13.4223L426.618 267.127L427.993 265.751L147.444 -14.7975Z" fill="#303030"/>
<path d="M146.069 -13.4223L144.694 -12.047L425.243 268.502L426.618 267.127L146.069 -13.4223Z" fill="#101010"/>
<path d="M144.694 -12.047L143.318 -10.6718L423.867 269.877L425.243 268.502L144.694 -12.047Z" fill="#303030"/>
<path d="M143.318 -10.6718L141.943 -9.29654L422.492 271.252L423.867 269.877L143.318 -10.6718Z" fill="#101010"/>
<path d="M141.943 -9.29654L140.568 -7.9213L421.117 272.627L422.492 271.252L141.943 -9.29654Z" fill="#303030"/>
<path d="M140.568 -7.9213L139.193 -6.54606L419.742 274.003L421.117 272.627L140.568 -7.9213Z" fill="#101010"/>
<path d="M139.193 -6.54606L137.818 -5.17083L418.366 275.378L419.742 274.003L139.193 -6.54606Z" fill="#303030"/>
<path d="M137.818 -5.17083L136.442 -3.79559L416.991 276.753L418.366 275.378L137.818 -5.17083Z" fill="#101010"/>
<path d="M136.442 -3.79559L135.067 -2.42034L415.616 278.128L416.991 276.753L136.442 -3.79559Z" fill="#303030"/>
<path d="M135.067 -2.42034L133.692 -1.0451L414.241 279.504L415.616 278.128L135.067 -2.42034Z" fill="#101010"/>
<path d="M133.692 -1.0451L132.317 0.330138L412.865 280.879L414.241 279.504L133.692 -1.0451Z" fill="#303030"/>
<path d="M132.317 0.330138L130.941 1.70537L411.49 282.254L412.865 280.879L132.317 0.330138Z" fill="#101010"/>
<path d="M130.941 1.70537L129.566 3.08062L410.115 283.629L411.49 282.254L130.941 1.70537Z" fill="#303030"/>
<path d="M129.566 3.08062L128.191 4.45584L408.74 285.005L410.115 283.629L129.566 3.08062Z" fill="#101010"/>
<path d="M128.191 4.45584L126.816 5.83108L407.364 286.38L408.74 285.005L128.191 4.45584Z" fill="#303030"/>
<path d="M126.816 5.83108L125.44 7.20632L405.989 287.755L407.364 286.38L126.816 5.83108Z" fill="#101010"/>
<path d="M125.44 7.20632L124.065 8.58157L404.614 289.13L405.989 287.755L125.44 7.20632Z" fill="#303030"/>
<path d="M124.065 8.58157L122.69 9.95681L403.239 290.506L404.614 289.13L124.065 8.58157Z" fill="#101010"/>
<path d="M122.69 9.95681L121.315 11.332L401.863 291.881L403.239 290.506L122.69 9.95681Z" fill="#303030"/>
<path d="M121.315 11.332L119.939 12.7073L400.488 293.256L401.863 291.881L121.315 11.332Z" fill="#101010"/>
<path d="M119.939 12.7073L118.564 14.0825L399.113 294.631L400.488 293.256L119.939 12.7073Z" fill="#303030"/>
<path d="M118.564 14.0825L117.189 15.4578L397.738 296.007L399.113 294.631L118.564 14.0825Z" fill="#101010"/>
<path d="M117.189 15.4578L115.814 16.833L396.363 297.382L397.738 296.007L117.189 15.4578Z" fill="#303030"/>
<path d="M115.814 16.833L114.438 18.2082L394.987 298.757L396.363 297.382L115.814 16.833Z" fill="#101010"/>
<path d="M114.438 18.2082L113.063 19.5835L393.612 300.132L394.987 298.757L114.438 18.2082Z" fill="#303030"/>
<path d="M113.063 19.5835L111.688 20.9587L392.237 301.508L393.612 300.132L113.063 19.5835Z" fill="#101010"/>
<path d="M111.688 20.9587L110.313 22.334L390.862 302.883L392.237 301.508L111.688 20.9587Z" fill="#303030"/>
<path d="M110.313 22.334L108.937 23.7092L389.486 304.258L390.862 302.883L110.313 22.334Z" fill="#101010"/>
<path d="M108.937 23.7092L107.562 25.0844L388.111 305.633L389.486 304.258L108.937 23.7092Z" fill="#303030"/>
<path d="M107.562 25.0844L106.187 26.4597L386.736 307.008L388.111 305.633L107.562 25.0844Z" fill="#101010"/>
<path d="M106.187 26.4597L104.812 27.8349L385.361 308.384L386.736 307.008L106.187 26.4597Z" fill="#303030"/>
<path d="M104.812 27.8349L103.437 29.2101L383.985 309.759L385.361 308.384L104.812 27.8349Z" fill="#101010"/>
<path d="M103.437 29.2101L102.061 30.5854L382.61 311.134L383.985 309.759L103.437 29.2101Z" fill="#303030"/>
<path d="M102.061 30.5854L100.686 31.9606L381.235 312.509L382.61 311.134L102.061 30.5854Z" fill="#101010"/>
<path d="M100.686 31.9606L99.3108 33.3359L379.86 313.885L381.235 312.509L100.686 31.9606Z" fill="#303030"/>
<path d="M99.3108 33.3359L97.9356 34.7111L378.484 315.26L379.86 313.885L99.3108 33.3359Z" fill="#101010"/>
<path d="M97.9356 34.7111L96.5603 36.0864L377.109 316.635L378.484 315.26L97.9356 34.7111Z" fill="#303030"/>
<path d="M96.5603 36.0864L95.1851 37.4616L375.734 318.01L377.109 316.635L96.5603 36.0864Z" fill="#101010"/>
<path d="M95.1851 37.4616L93.8099 38.8368L374.359 319.386L375.734 318.01L95.1851 37.4616Z" fill="#303030"/>
<path d="M93.8099 38.8368L92.4346 40.2121L372.983 320.761L374.359 319.386L93.8099 38.8368Z" fill="#101010"/>
<path d="M92.4346 40.2121L91.0594 41.5873L371.608 322.136L372.983 320.761L92.4346 40.2121Z" fill="#303030"/>
<path d="M91.0594 41.5873L89.6842 42.9625L370.233 323.511L371.608 322.136L91.0594 41.5873Z" fill="#101010"/>
<path d="M89.6842 42.9625L88.3089 44.3378L368.858 324.887L370.233 323.511L89.6842 42.9625Z" fill="#303030"/>
<path d="M88.3089 44.3378L86.9337 45.713L367.482 326.262L368.858 324.887L88.3089 44.3378Z" fill="#101010"/>
<path d="M86.9337 45.713L85.5584 47.0883L366.107 327.637L367.482 326.262L86.9337 45.713Z" fill="#303030"/>
<path d="M85.5584 47.0883L84.1832 48.4635L364.732 329.012L366.107 327.637L85.5584 47.0883Z" fill="#101010"/>
<path d="M84.1832 48.4635L82.808 49.8387L363.357 330.388L364.732 329.012L84.1832 48.4635Z" fill="#303030"/>
<path d="M82.808 49.8387L81.4327 51.214L361.982 331.763L363.357 330.388L82.808 49.8387Z" fill="#101010"/>
<path d="M81.4327 51.214L80.0575 52.5892L360.606 333.138L361.982 331.763L81.4327 51.214Z" fill="#303030"/>
<path d="M80.0575 52.5892L78.6822 53.9645L359.231 334.513L360.606 333.138L80.0575 52.5892Z" fill="#101010"/>
<path d="M78.6822 53.9645L77.307 55.3397L357.856 335.888L359.231 334.513L78.6822 53.9645Z" fill="#303030"/>
<path d="M77.307 55.3397L75.9318 56.7149L356.481 337.264L357.856 335.888L77.307 55.3397Z" fill="#101010"/>
<path d="M75.9318 56.7149L74.5565 58.0902L355.105 338.639L356.481 337.264L75.9318 56.7149Z" fill="#303030"/>
<path d="M74.5565 58.0902L73.1813 59.4654L353.73 340.014L355.105 338.639L74.5565 58.0902Z" fill="#101010"/>
<path d="M73.1813 59.4654L71.806 60.8407L352.355 341.389L353.73 340.014L73.1813 59.4654Z" fill="#303030"/>
<path d="M71.806 60.8407L70.4308 62.2159L350.98 342.765L352.355 341.389L71.806 60.8407Z" fill="#101010"/>
<path d="M70.4308 62.2159L69.0556 63.5911L349.604 344.14L350.98 342.765L70.4308 62.2159Z" fill="#303030"/>
<path d="M69.0556 63.5911L67.6803 64.9664L348.229 345.515L349.604 344.14L69.0556 63.5911Z" fill="#101010"/>
<path d="M67.6803 64.9664L66.3051 66.3416L346.854 346.89L348.229 345.515L67.6803 64.9664Z" fill="#303030"/>
<path d="M66.3051 66.3416L64.9299 67.7168L345.479 348.266L346.854 346.89L66.3051 66.3416Z" fill="#101010"/>
<path d="M64.9299 67.7168L63.5546 69.0921L344.103 349.641L345.479 348.266L64.9299 67.7168Z" fill="#303030"/>
<path d="M63.5546 69.0921L62.1794 70.4673L342.728 351.016L344.103 349.641L63.5546 69.0921Z" fill="#101010"/>
<path d="M62.1794 70.4673L60.8041 71.8426L341.353 352.391L342.728 351.016L62.1794 70.4673Z" fill="#303030"/>
<path d="M60.8041 71.8426L59.4289 73.2178L339.978 353.767L341.353 352.391L60.8041 71.8426Z" fill="#101010"/>
<path d="M59.4289 73.2178L58.0536 74.5931L338.602 355.142L339.978 353.767L59.4289 73.2178Z" fill="#303030"/>
<path d="M58.0536 74.5931L56.6784 75.9683L337.227 356.517L338.602 355.142L58.0536 74.5931Z" fill="#101010"/>
<path d="M56.6784 75.9683L55.3032 77.3435L335.852 357.892L337.227 356.517L56.6784 75.9683Z" fill="#303030"/>
<path d="M55.3032 77.3435L53.9279 78.7188L334.477 359.268L335.852 357.892L55.3032 77.3435Z" fill="#101010"/>
<path d="M53.9279 78.7188L52.5527 80.094L333.101 360.643L334.477 359.268L53.9279 78.7188Z" fill="#303030"/>
<path d="M52.5527 80.094L51.1775 81.4692L331.726 362.018L333.101 360.643L52.5527 80.094Z" fill="#101010"/>
<path d="M51.1775 81.4692L49.8022 82.8445L330.351 363.393L331.726 362.018L51.1775 81.4692Z" fill="#303030"/>
<path d="M49.8022 82.8445L48.427 84.2197L328.976 364.769L330.351 363.393L49.8022 82.8445Z" fill="#101010"/>
<path d="M48.427 84.2197L47.0517 85.595L327.601 366.144L328.976 364.769L48.427 84.2197Z" fill="#303030"/>
<path d="M47.0517 85.595L45.6765 86.9702L326.225 367.519L327.601 366.144L47.0517 85.595Z" fill="#101010"/>
<path d="M45.6765 86.9702L44.3013 88.3454L324.85 368.894L326.225 367.519L45.6765 86.9702Z" fill="#303030"/>
<path d="M44.3013 88.3454L42.926 89.7207L323.475 370.269L324.85 368.894L44.3013 88.3454Z" fill="#101010"/>
<path d="M42.926 89.7207L41.5508 91.0959L322.1 371.645L323.475 370.269L42.926 89.7207Z" fill="#303030"/>
<path d="M41.5508 91.0959L40.1755 92.4711L320.724 373.02L322.1 371.645L41.5508 91.0959Z" fill="#101010"/>
<path d="M40.1755 92.4711L38.8003 93.8464L319.349 374.395L320.724 373.02L40.1755 92.4711Z" fill="#303030"/>
<path d="M38.8003 93.8464L37.4251 95.2216L317.974 375.77L319.349 374.395L38.8003 93.8464Z" fill="#101010"/>
<path d="M37.4251 95.2216L36.0498 96.5969L316.599 377.146L317.974 375.77L37.4251 95.2216Z" fill="#303030"/>
<path d="M36.0498 96.5969L34.6746 97.9721L315.223 378.521L316.599 377.146L36.0498 96.5969Z" fill="#101010"/>
<path d="M34.6746 97.9721L33.2993 99.3474L313.848 379.896L315.223 378.521L34.6746 97.9721Z" fill="#303030"/>
<path d="M33.2993 99.3474L31.9241 100.723L312.473 381.271L313.848 379.896L33.2993 99.3474Z" fill="#101010"/>
<path d="M31.9241 100.723L30.5489 102.098L311.098 382.647L312.473 381.271L31.9241 100.723Z" fill="#303030"/>
<path d="M-27.4512 44L-28.8264 45.3752L251.722 325.924L253.098 324.549L-27.4512 44Z" fill="#101010"/>
<path d="M-28.8264 45.3752L-30.2017 46.7505L250.347 327.299L251.722 325.924L-28.8264 45.3752Z" fill="#303030"/>
<path d="M-30.2017 46.7505L-31.5769 48.1257L248.972 328.675L250.347 327.299L-30.2017 46.7505Z" fill="#101010"/>
<path d="M-31.5769 48.1257L-32.9521 49.501L247.597 330.05L248.972 328.675L-31.5769 48.1257Z" fill="#303030"/>
<path d="M-32.9521 49.501L-34.3274 50.8762L246.221 331.425L247.597 330.05L-32.9521 49.501Z" fill="#101010"/>
<path d="M-34.3274 50.8762L-35.7026 52.2514L244.846 332.8L246.221 331.425L-34.3274 50.8762Z" fill="#303030"/>
<path d="M-35.7026 52.2514L-37.0778 53.6267L243.471 334.175L244.846 332.8L-35.7026 52.2514Z" fill="#101010"/>
<path d="M-37.0778 53.6267L-38.4531 55.0019L242.096 335.551L243.471 334.175L-37.0778 53.6267Z" fill="#303030"/>
<path d="M-38.4531 55.0019L-39.8283 56.3772L240.72 336.926L242.096 335.551L-38.4531 55.0019Z" fill="#101010"/>
<path d="M-39.8283 56.3772L-41.2036 57.7524L239.345 338.301L240.72 336.926L-39.8283 56.3772Z" fill="#303030"/>
<path d="M-41.2036 57.7524L-42.5788 59.1276L237.97 339.676L239.345 338.301L-41.2036 57.7524Z" fill="#101010"/>
<path d="M-42.5788 59.1276L-43.954 60.5029L236.595 341.052L237.97 339.676L-42.5788 59.1276Z" fill="#303030"/>
<path d="M-43.954 60.5029L-45.3293 61.8781L235.22 342.427L236.595 341.052L-43.954 60.5029Z" fill="#101010"/>
<path d="M-45.3293 61.8781L-46.7045 63.2533L233.844 343.802L235.22 342.427L-45.3293 61.8781Z" fill="#303030"/>
<path d="M-46.7045 63.2533L-48.0798 64.6286L232.469 345.177L233.844 343.802L-46.7045 63.2533Z" fill="#101010"/>
<path d="M-48.0798 64.6286L-49.455 66.0038L231.094 346.553L232.469 345.177L-48.0798 64.6286Z" fill="#303030"/>
<path d="M-49.455 66.0038L-50.8302 67.3791L229.719 347.928L231.094 346.553L-49.455 66.0038Z" fill="#101010"/>
<path d="M-50.8302 67.3791L-52.2055 68.7543L228.343 349.303L229.719 347.928L-50.8302 67.3791Z" fill="#303030"/>
<path d="M-52.2055 68.7543L-53.5807 70.1295L226.968 350.678L228.343 349.303L-52.2055 68.7543Z" fill="#101010"/>
<path d="M-53.5807 70.1295L-54.956 71.5048L225.593 352.054L226.968 350.678L-53.5807 70.1295Z" fill="#303030"/>
<path d="M-54.956 71.5048L-56.3312 72.88L224.218 353.429L225.593 352.054L-54.956 71.5048Z" fill="#101010"/>
<path d="M-56.3312 72.88L-57.7064 74.2553L222.842 354.804L224.218 353.429L-56.3312 72.88Z" fill="#303030"/>
<path d="M-57.7064 74.2553L-59.0817 75.6305L221.467 356.179L222.842 354.804L-57.7064 74.2553Z" fill="#101010"/>
<path d="M-59.0817 75.6305L-60.4569 77.0057L220.092 357.555L221.467 356.179L-59.0817 75.6305Z" fill="#303030"/>
<path d="M-60.4569 77.0057L-61.8322 78.381L218.717 358.93L220.092 357.555L-60.4569 77.0057Z" fill="#101010"/>
<path d="M-61.8322 78.381L-63.2074 79.7562L217.341 360.305L218.717 358.93L-61.8322 78.381Z" fill="#303030"/>
<path d="M-63.2074 79.7562L-64.5826 81.1315L215.966 361.68L217.341 360.305L-63.2074 79.7562Z" fill="#101010"/>
<path d="M-64.5826 81.1315L-65.9579 82.5067L214.591 363.055L215.966 361.68L-64.5826 81.1315Z" fill="#303030"/>
<path d="M-65.9579 82.5067L-67.3331 83.8819L213.216 364.431L214.591 363.055L-65.9579 82.5067Z" fill="#101010"/>
<path d="M-67.3331 83.8819L-68.7083 85.2572L211.84 365.806L213.216 364.431L-67.3331 83.8819Z" fill="#303030"/>
<path d="M-68.7083 85.2572L-70.0836 86.6324L210.465 367.181L211.84 365.806L-68.7083 85.2572Z" fill="#101010"/>
<path d="M-70.0836 86.6324L-71.4588 88.0077L209.09 368.556L210.465 367.181L-70.0836 86.6324Z" fill="#303030"/>
<path d="M-71.4588 88.0077L-72.8341 89.3829L207.715 369.932L209.09 368.556L-71.4588 88.0077Z" fill="#101010"/>
<path d="M-72.8341 89.3829L-74.2093 90.7581L206.339 371.307L207.715 369.932L-72.8341 89.3829Z" fill="#303030"/>
<path d="M-74.2093 90.7581L-75.5845 92.1334L204.964 372.682L206.339 371.307L-74.2093 90.7581Z" fill="#101010"/>
<path d="M-75.5845 92.1334L-76.9598 93.5086L203.589 374.057L204.964 372.682L-75.5845 92.1334Z" fill="#303030"/>
<path d="M-76.9598 93.5086L-78.335 94.8839L202.214 375.433L203.589 374.057L-76.9598 93.5086Z" fill="#101010"/>
<path d="M-78.335 94.8839L-79.7103 96.2591L200.839 376.808L202.214 375.433L-78.335 94.8839Z" fill="#303030"/>
<path d="M-79.7103 96.2591L-81.0855 97.6343L199.463 378.183L200.839 376.808L-79.7103 96.2591Z" fill="#101010"/>
<path d="M-81.0855 97.6343L-82.4607 99.0096L198.088 379.558L199.463 378.183L-81.0855 97.6343Z" fill="#303030"/>
<path d="M-82.4607 99.0096L-83.836 100.385L196.713 380.934L198.088 379.558L-82.4607 99.0096Z" fill="#101010"/>
<path d="M-83.836 100.385L-85.2112 101.76L195.338 382.309L196.713 380.934L-83.836 100.385Z" fill="#303030"/>
<path d="M-85.2112 101.76L-86.5865 103.135L193.962 383.684L195.338 382.309L-85.2112 101.76Z" fill="#101010"/>
<path d="M-86.5865 103.135L-87.9617 104.511L192.587 385.059L193.962 383.684L-86.5865 103.135Z" fill="#303030"/>
<path d="M-87.9617 104.511L-89.3369 105.886L191.212 386.435L192.587 385.059L-87.9617 104.511Z" fill="#101010"/>
<path d="M-89.3369 105.886L-90.7122 107.261L189.837 387.81L191.212 386.435L-89.3369 105.886Z" fill="#303030"/>
<path d="M-90.7122 107.261L-92.0874 108.636L188.461 389.185L189.837 387.81L-90.7122 107.261Z" fill="#101010"/>
<path d="M-92.0874 108.636L-93.4627 110.011L187.086 390.56L188.461 389.185L-92.0874 108.636Z" fill="#303030"/>
<path d="M-93.4627 110.011L-94.8379 111.387L185.711 391.936L187.086 390.56L-93.4627 110.011Z" fill="#101010"/>
<path d="M-94.8379 111.387L-96.2131 112.762L184.336 393.311L185.711 391.936L-94.8379 111.387Z" fill="#303030"/>
<path d="M-96.2131 112.762L-97.5884 114.137L182.96 394.686L184.336 393.311L-96.2131 112.762Z" fill="#101010"/>
<path d="M-97.5884 114.137L-98.9636 115.512L181.585 396.061L182.96 394.686L-97.5884 114.137Z" fill="#303030"/>
<path d="M-98.9636 115.512L-100.339 116.888L180.21 397.436L181.585 396.061L-98.9636 115.512Z" fill="#101010"/>
<path d="M-100.339 116.888L-101.714 118.263L178.835 398.812L180.21 397.436L-100.339 116.888Z" fill="#303030"/>
<path d="M-101.714 118.263L-103.089 119.638L177.459 400.187L178.835 398.812L-101.714 118.263Z" fill="#101010"/>
<path d="M-103.089 119.638L-104.465 121.013L176.084 401.562L177.459 400.187L-103.089 119.638Z" fill="#303030"/>
<path d="M-104.465 121.013L-105.84 122.389L174.709 402.937L176.084 401.562L-104.465 121.013Z" fill="#101010"/>
<path d="M-105.84 122.389L-107.215 123.764L173.334 404.313L174.709 402.937L-105.84 122.389Z" fill="#303030"/>
<path d="M-107.215 123.764L-108.59 125.139L171.959 405.688L173.334 404.313L-107.215 123.764Z" fill="#101010"/>
<path d="M-108.59 125.139L-109.966 126.514L170.583 407.063L171.959 405.688L-108.59 125.139Z" fill="#303030"/>
<path d="M-109.966 126.514L-111.341 127.89L169.208 408.438L170.583 407.063L-109.966 126.514Z" fill="#101010"/>
<path d="M-111.341 127.89L-112.716 129.265L167.833 409.814L169.208 408.438L-111.341 127.89Z" fill="#303030"/>
<path d="M-112.716 129.265L-114.091 130.64L166.458 411.189L167.833 409.814L-112.716 129.265Z" fill="#101010"/>
<path d="M-114.091 130.64L-115.466 132.015L165.082 412.564L166.458 411.189L-114.091 130.64Z" fill="#303030"/>
<path d="M-115.466 132.015L-116.842 133.391L163.707 413.939L165.082 412.564L-115.466 132.015Z" fill="#101010"/>
<path d="M-116.842 133.391L-118.217 134.766L162.332 415.315L163.707 413.939L-116.842 133.391Z" fill="#303030"/>
<path d="M-118.217 134.766L-119.592 136.141L160.957 416.69L162.332 415.315L-118.217 134.766Z" fill="#101010"/>
<path d="M-119.592 136.141L-120.967 137.516L159.581 418.065L160.957 416.69L-119.592 136.141Z" fill="#303030"/>
<path d="M-120.967 137.516L-122.343 138.892L158.206 419.44L159.581 418.065L-120.967 137.516Z" fill="#101010"/>
<path d="M-122.343 138.892L-123.718 140.267L156.831 420.816L158.206 419.44L-122.343 138.892Z" fill="#303030"/>
<path d="M-123.718 140.267L-125.093 141.642L155.456 422.191L156.831 420.816L-123.718 140.267Z" fill="#101010"/>
<path d="M-125.093 141.642L-126.468 143.017L154.08 423.566L155.456 422.191L-125.093 141.642Z" fill="#303030"/>
<path d="M-126.468 143.017L-127.844 144.392L152.705 424.941L154.08 423.566L-126.468 143.017Z" fill="#101010"/>
<path d="M-127.844 144.392L-129.219 145.768L151.33 426.316L152.705 424.941L-127.844 144.392Z" fill="#303030"/>
<path d="M-129.219 145.768L-130.594 147.143L149.955 427.692L151.33 426.316L-129.219 145.768Z" fill="#101010"/>
<path d="M-130.594 147.143L-131.969 148.518L148.579 429.067L149.955 427.692L-130.594 147.143Z" fill="#303030"/>
<path d="M-131.969 148.518L-133.345 149.893L147.204 430.442L148.579 429.067L-131.969 148.518Z" fill="#101010"/>
<path d="M-133.345 149.893L-134.72 151.269L145.829 431.817L147.204 430.442L-133.345 149.893Z" fill="#303030"/>
<path d="M-134.72 151.269L-136.095 152.644L144.454 433.193L145.829 431.817L-134.72 151.269Z" fill="#101010"/>
<path d="M-136.095 152.644L-137.47 154.019L143.078 434.568L144.454 433.193L-136.095 152.644Z" fill="#303030"/>
<path d="M-137.47 154.019L-138.846 155.394L141.703 435.943L143.078 434.568L-137.47 154.019Z" fill="#101010"/>
<path d="M-138.846 155.394L-140.221 156.77L140.328 437.318L141.703 435.943L-138.846 155.394Z" fill="#303030"/>
<path d="M-140.221 156.77L-141.596 158.145L138.953 438.694L140.328 437.318L-140.221 156.77Z" fill="#101010"/>
<path d="M-141.596 158.145L-142.971 159.52L137.578 440.069L138.953 438.694L-141.596 158.145Z" fill="#303030"/>
<path d="M-142.971 159.52L-144.346 160.895L136.202 441.444L137.578 440.069L-142.971 159.52Z" fill="#101010"/>
<path d="M-144.346 160.895L-145.722 162.271L134.827 442.819L136.202 441.444L-144.346 160.895Z" fill="#303030"/>
<path d="M-145.722 162.271L-147.097 163.646L133.452 444.195L134.827 442.819L-145.722 162.271Z" fill="#101010"/>
<path d="M-147.097 163.646L-148.472 165.021L132.077 445.57L133.452 444.195L-147.097 163.646Z" fill="#303030"/>
<path d="M-148.472 165.021L-149.847 166.396L130.701 446.945L132.077 445.57L-148.472 165.021Z" fill="#101010"/>
<path d="M-149.847 166.396L-151.223 167.772L129.326 448.32L130.701 446.945L-149.847 166.396Z" fill="#303030"/>
<path d="M-151.223 167.772L-152.598 169.147L127.951 449.696L129.326 448.32L-151.223 167.772Z" fill="#101010"/>
<path d="M-152.598 169.147L-153.973 170.522L126.576 451.071L127.951 449.696L-152.598 169.147Z" fill="#303030"/>
<path d="M-153.973 170.522L-155.348 171.897L125.2 452.446L126.576 451.071L-153.973 170.522Z" fill="#101010"/>
<path d="M-155.348 171.897L-156.724 173.272L123.825 453.821L125.2 452.446L-155.348 171.897Z" fill="#303030"/>
<path d="M-156.724 173.272L-158.099 174.648L122.45 455.197L123.825 453.821L-156.724 173.272Z" fill="#101010"/>
<path d="M-158.099 174.648L-159.474 176.023L121.075 456.572L122.45 455.197L-158.099 174.648Z" fill="#303030"/>
<path d="M-159.474 176.023L-160.849 177.398L119.699 457.947L121.075 456.572L-159.474 176.023Z" fill="#101010"/>
<path d="M-160.849 177.398L-162.225 178.773L118.324 459.322L119.699 457.947L-160.849 177.398Z" fill="#303030"/>
<path d="M-162.225 178.773L-163.6 180.149L116.949 460.697L118.324 459.322L-162.225 178.773Z" fill="#101010"/>
<path d="M-163.6 180.149L-164.975 181.524L115.574 462.073L116.949 460.697L-163.6 180.149Z" fill="#303030"/>
<path d="M-164.975 181.524L-166.35 182.899L114.198 463.448L115.574 462.073L-164.975 181.524Z" fill="#101010"/>
<path d="M-166.35 182.899L-167.726 184.274L112.823 464.823L114.198 463.448L-166.35 182.899Z" fill="#303030"/>
<path d="M-167.726 184.274L-169.101 185.65L111.448 466.198L112.823 464.823L-167.726 184.274Z" fill="#101010"/>
<path d="M-169.101 185.65L-170.476 187.025L110.073 467.574L111.448 466.198L-169.101 185.65Z" fill="#303030"/>
<path d="M-170.476 187.025L-171.851 188.4L108.698 468.949L110.073 467.574L-170.476 187.025Z" fill="#101010"/>
<path d="M-171.851 188.4L-173.227 189.775L107.322 470.324L108.698 468.949L-171.851 188.4Z" fill="#303030"/>
<path d="M-173.227 189.775L-174.602 191.151L105.947 471.699L107.322 470.324L-173.227 189.775Z" fill="#101010"/>
<path d="M-174.602 191.151L-175.977 192.526L104.572 473.075L105.947 471.699L-174.602 191.151Z" fill="#303030"/>
<path d="M-175.977 192.526L-177.352 193.901L103.197 474.45L104.572 473.075L-175.977 192.526Z" fill="#101010"/>
<path d="M-177.352 193.901L-178.727 195.276L101.821 475.825L103.197 474.45L-177.352 193.901Z" fill="#303030"/>
<path d="M-178.727 195.276L-180.103 196.652L100.446 477.2L101.821 475.825L-178.727 195.276Z" fill="#101010"/>
<path d="M-180.103 196.652L-181.478 198.027L99.0708 478.576L100.446 477.2L-180.103 196.652Z" fill="#303030"/>
<path d="M-181.478 198.027L-182.853 199.402L97.6956 479.951L99.0708 478.576L-181.478 198.027Z" fill="#101010"/>
<path d="M-182.853 199.402L-184.228 200.777L96.3204 481.326L97.6956 479.951L-182.853 199.402Z" fill="#303030"/>
<path d="M-184.228 200.777L-185.604 202.153L94.9451 482.701L96.3204 481.326L-184.228 200.777Z" fill="#101010"/>
<path d="M-185.604 202.153L-186.979 203.528L93.5699 484.077L94.9451 482.701L-185.604 202.153Z" fill="#303030"/>
<path d="M-186.979 203.528L-188.354 204.903L92.1946 485.452L93.5699 484.077L-186.979 203.528Z" fill="#101010"/>
<path d="M-188.354 204.903L-189.729 206.278L90.8194 486.827L92.1946 485.452L-188.354 204.903Z" fill="#303030"/>
<path d="M-189.729 206.278L-191.105 207.653L89.4442 488.202L90.8194 486.827L-189.729 206.278Z" fill="#101010"/>
<path d="M-191.105 207.653L-192.48 209.029L88.0689 489.577L89.4442 488.202L-191.105 207.653Z" fill="#303030"/>
<path d="M-192.48 209.029L-193.855 210.404L86.6937 490.953L88.0689 489.577L-192.48 209.029Z" fill="#101010"/>
<path d="M-193.855 210.404L-195.23 211.779L85.3185 492.328L86.6937 490.953L-193.855 210.404Z" fill="#303030"/>
<path d="M-195.23 211.779L-196.606 213.154L83.9432 493.703L85.3185 492.328L-195.23 211.779Z" fill="#101010"/>
<path d="M-196.606 213.154L-197.981 214.53L82.568 495.078L83.9432 493.703L-196.606 213.154Z" fill="#303030"/>
<path d="M-197.981 214.53L-199.356 215.905L81.1927 496.454L82.568 495.078L-197.981 214.53Z" fill="#101010"/>
<path d="M-199.356 215.905L-200.731 217.28L79.8175 497.829L81.1927 496.454L-199.356 215.905Z" fill="#303030"/>
<path d="M-200.731 217.28L-202.107 218.655L78.4423 499.204L79.8175 497.829L-200.731 217.28Z" fill="#101010"/>
<path d="M-202.107 218.655L-203.482 220.031L77.067 500.579L78.4423 499.204L-202.107 218.655Z" fill="#303030"/>
<path d="M-203.482 220.031L-204.857 221.406L75.6918 501.955L77.067 500.579L-203.482 220.031Z" fill="#101010"/>
<path d="M-204.857 221.406L-206.232 222.781L74.3165 503.33L75.6918 501.955L-204.857 221.406Z" fill="#303030"/>
<path d="M-206.232 222.781L-207.607 224.156L72.9413 504.705L74.3165 503.33L-206.232 222.781Z" fill="#101010"/>
<path d="M-207.607 224.156L-208.983 225.532L71.566 506.08L72.9413 504.705L-207.607 224.156Z" fill="#303030"/>
<path d="M-208.983 225.532L-210.358 226.907L70.1908 507.456L71.566 506.08L-208.983 225.532Z" fill="#101010"/>
<path d="M-210.358 226.907L-211.733 228.282L68.8156 508.831L70.1908 507.456L-210.358 226.907Z" fill="#303030"/>
<path d="M-211.733 228.282L-213.108 229.657L67.4403 510.206L68.8156 508.831L-211.733 228.282Z" fill="#101010"/>
<path d="M-213.108 229.657L-214.484 231.033L66.0651 511.581L67.4403 510.206L-213.108 229.657Z" fill="#303030"/>
<path d="M-214.484 231.033L-215.859 232.408L64.6899 512.957L66.0651 511.581L-214.484 231.033Z" fill="#101010"/>
<path d="M-215.859 232.408L-217.234 233.783L63.3146 514.332L64.6899 512.957L-215.859 232.408Z" fill="#303030"/>
<path d="M-217.234 233.783L-218.609 235.158L61.9394 515.707L63.3146 514.332L-217.234 233.783Z" fill="#101010"/>
<path d="M-218.609 235.158L-219.985 236.533L60.5641 517.082L61.9394 515.707L-218.609 235.158Z" fill="#303030"/>
<path d="M-219.985 236.533L-221.36 237.909L59.1889 518.458L60.5641 517.082L-219.985 236.533Z" fill="#101010"/>
<path d="M-221.36 237.909L-222.735 239.284L57.8137 519.833L59.1889 518.458L-221.36 237.909Z" fill="#303030"/>
<path d="M-222.735 239.284L-224.11 240.659L56.4384 521.208L57.8137 519.833L-222.735 239.284Z" fill="#101010"/>
<path d="M-224.11 240.659L-225.486 242.034L55.0632 522.583L56.4384 521.208L-224.11 240.659Z" fill="#303030"/>
<path d="M-225.486 242.034L-226.861 243.41L53.6879 523.958L55.0632 522.583L-225.486 242.034Z" fill="#101010"/>
<path d="M-226.861 243.41L-228.236 244.785L52.3127 525.334L53.6879 523.958L-226.861 243.41Z" fill="#303030"/>
<path d="M-228.236 244.785L-229.611 246.16L50.9375 526.709L52.3127 525.334L-228.236 244.785Z" fill="#101010"/>
<path d="M-229.611 246.16L-230.987 247.535L49.5622 528.084L50.9375 526.709L-229.611 246.16Z" fill="#303030"/>
<path d="M-230.987 247.535L-232.362 248.911L48.187 529.459L49.5622 528.084L-230.987 247.535Z" fill="#101010"/>
<path d="M-232.362 248.911L-233.737 250.286L46.8117 530.835L48.187 529.459L-232.362 248.911Z" fill="#303030"/>
<path d="M-233.737 250.286L-235.112 251.661L45.4365 532.21L46.8117 530.835L-233.737 250.286Z" fill="#101010"/>
<path d="M-235.112 251.661L-236.488 253.036L44.0613 533.585L45.4365 532.21L-235.112 251.661Z" fill="#303030"/>
<path d="M-236.488 253.036L-237.863 254.412L42.686 534.96L44.0613 533.585L-236.488 253.036Z" fill="#101010"/>
<path d="M-237.863 254.412L-239.238 255.787L41.3108 536.336L42.686 534.96L-237.863 254.412Z" fill="#303030"/>
<path d="M-239.238 255.787L-240.613 257.162L39.9356 537.711L41.3108 536.336L-239.238 255.787Z" fill="#101010"/>
<path d="M-240.613 257.162L-241.988 258.537L38.5603 539.086L39.9356 537.711L-240.613 257.162Z" fill="#303030"/>
<path d="M-241.988 258.537L-243.364 259.913L37.1851 540.461L38.5603 539.086L-241.988 258.537Z" fill="#101010"/>
<path d="M-243.364 259.913L-244.739 261.288L35.8098 541.837L37.1851 540.461L-243.364 259.913Z" fill="#303030"/>
<path d="M-244.739 261.288L-246.114 262.663L34.4346 543.212L35.8098 541.837L-244.739 261.288Z" fill="#101010"/>
<path d="M-246.114 262.663L-247.489 264.038L33.0594 544.587L34.4346 543.212L-246.114 262.663Z" fill="#303030"/>
<path d="M-247.489 264.038L-248.865 265.413L31.6841 545.962L33.0594 544.587L-247.489 264.038Z" fill="#101010"/>
<path d="M-248.865 265.413L-250.24 266.789L30.3089 547.338L31.6841 545.962L-248.865 265.413Z" fill="#303030"/>
<path d="M-250.24 266.789L-251.615 268.164L28.9336 548.713L30.3089 547.338L-250.24 266.789Z" fill="#101010"/>
<path d="M-251.615 268.164L-252.99 269.539L27.5584 550.088L28.9336 548.713L-251.615 268.164Z" fill="#303030"/>
<path d="M-252.99 269.539L-254.366 270.914L26.1832 551.463L27.5584 550.088L-252.99 269.539Z" fill="#101010"/>
<path d="M-254.366 270.914L-255.741 272.29L24.8079 552.839L26.1832 551.463L-254.366 270.914Z" fill="#303030"/>
<path d="M-255.741 272.29L-257.116 273.665L23.4327 554.214L24.8079 552.839L-255.741 272.29Z" fill="#101010"/>
<path d="M-257.116 273.665L-258.491 275.04L22.0574 555.589L23.4327 554.214L-257.116 273.665Z" fill="#303030"/>
<path d="M-258.491 275.04L-259.867 276.415L20.6822 556.964L22.0574 555.589L-258.491 275.04Z" fill="#101010"/>
<path d="M-259.867 276.415L-261.242 277.791L19.307 558.339L20.6822 556.964L-259.867 276.415Z" fill="#303030"/>
<path d="M-261.242 277.791L-262.617 279.166L17.9317 559.715L19.307 558.339L-261.242 277.791Z" fill="#101010"/>
<path d="M-262.617 279.166L-263.992 280.541L16.5565 561.09L17.9317 559.715L-262.617 279.166Z" fill="#303030"/>
<path d="M-263.992 280.541L-265.368 281.916L15.1813 562.465L16.5565 561.09L-263.992 280.541Z" fill="#101010"/>
<path d="M-265.368 281.916L-266.743 283.292L13.806 563.84L15.1813 562.465L-265.368 281.916Z" fill="#303030"/>
<path d="M-266.743 283.292L-268.118 284.667L12.4308 565.216L13.806 563.84L-266.743 283.292Z" fill="#101010"/>
<path d="M-268.118 284.667L-269.493 286.042L11.0555 566.591L12.4308 565.216L-268.118 284.667Z" fill="#303030"/>
<path d="M-269.493 286.042L-270.869 287.417L9.68028 567.966L11.0555 566.591L-269.493 286.042Z" fill="#101010"/>
<path d="M-270.869 287.417L-272.244 288.793L8.30504 569.341L9.68028 567.966L-270.869 287.417Z" fill="#303030"/>
<path d="M-272.244 288.793L-273.619 290.168L6.92982 570.717L8.30504 569.341L-272.244 288.793Z" fill="#101010"/>
<path d="M-273.619 290.168L-274.994 291.543L5.55458 572.092L6.92982 570.717L-273.619 290.168Z" fill="#303030"/>
<path d="M-274.994 291.543L-276.369 292.918L4.17934 573.467L5.55458 572.092L-274.994 291.543Z" fill="#101010"/>
<path d="M-276.369 292.918L-277.745 294.294L2.8041 574.842L4.17934 573.467L-276.369 292.918Z" fill="#303030"/>
<path d="M-277.745 294.294L-279.12 295.669L1.42886 576.218L2.8041 574.842L-277.745 294.294Z" fill="#101010"/>
<path d="M-279.12 295.669L-280.495 297.044L0.0536155 577.593L1.42886 576.218L-279.12 295.669Z" fill="#303030"/>
<path d="M-280.495 297.044L-281.87 298.419L-1.32163 578.968L0.0536155 577.593L-280.495 297.044Z" fill="#101010"/>
<path d="M-281.87 298.419L-283.246 299.794L-2.69687 580.343L-1.32163 578.968L-281.87 298.419Z" fill="#303030"/>
<path d="M-283.246 299.794L-284.621 301.17L-4.07211 581.719L-2.69687 580.343L-283.246 299.794Z" fill="#101010"/>
<path d="M-284.621 301.17L-285.996 302.545L-5.44733 583.094L-4.07211 581.719L-284.621 301.17Z" fill="#303030"/>
<path d="M-285.996 302.545L-287.371 303.92L-6.82257 584.469L-5.44733 583.094L-285.996 302.545Z" fill="#101010"/>
<path d="M-287.371 303.92L-288.747 305.295L-8.19781 585.844L-6.82257 584.469L-287.371 303.92Z" fill="#303030"/>
<path d="M-288.747 305.295L-290.122 306.671L-9.57305 587.219L-8.19781 585.844L-288.747 305.295Z" fill="#101010"/>
<path d="M-290.122 306.671L-291.497 308.046L-10.9483 588.595L-9.57305 587.219L-290.122 306.671Z" fill="#303030"/>
<path d="M-291.497 308.046L-292.872 309.421L-12.3235 589.97L-10.9483 588.595L-291.497 308.046Z" fill="#101010"/>
<path d="M-292.872 309.421L-294.248 310.796L-13.6988 591.345L-12.3235 589.97L-292.872 309.421Z" fill="#303030"/>
<path d="M-294.248 310.796L-295.623 312.172L-15.074 592.72L-13.6988 591.345L-294.248 310.796Z" fill="#101010"/>
<path d="M-295.623 312.172L-296.998 313.547L-16.4493 594.096L-15.074 592.72L-295.623 312.172Z" fill="#303030"/>
<path d="M-296.998 313.547L-298.373 314.922L-17.8245 595.471L-16.4493 594.096L-296.998 313.547Z" fill="#101010"/>
<path d="M-298.373 314.922L-299.749 316.297L-19.1997 596.846L-17.8245 595.471L-298.373 314.922Z" fill="#303030"/>
<path d="M-299.749 316.297L-301.124 317.673L-20.575 598.221L-19.1997 596.846L-299.749 316.297Z" fill="#101010"/>
<path d="M-301.124 317.673L-302.499 319.048L-21.9502 599.597L-20.575 598.221L-301.124 317.673Z" fill="#303030"/>
<path d="M-302.499 319.048L-303.874 320.423L-23.3254 600.972L-21.9502 599.597L-302.499 319.048Z" fill="#101010"/>
<path d="M-303.874 320.423L-305.249 321.798L-24.7007 602.347L-23.3254 600.972L-303.874 320.423Z" fill="#303030"/>
<path d="M-305.249 321.798L-306.625 323.174L-26.0759 603.722L-24.7007 602.347L-305.249 321.798Z" fill="#101010"/>
<path d="M-306.625 323.174L-308 324.549L-27.4512 605.098L-26.0759 603.722L-306.625 323.174Z" fill="#303030"/>
</g>
</g>
<defs>
<clipPath id="clip0_122_462">
<rect width="323" height="119" fill="white"/>
</clipPath>
<clipPath id="clip1_122_462">
<rect width="358" height="494" fill="white" transform="matrix(-1 0 0 1 358 -118)"/>
</clipPath>
</defs>
</svg>
